<?xml version="1.0" encoding="utf-8"?>
<svg xmlns="http://www.w3.org/2000/svg" xmlns:xlink="http://www.w3.org/1999/xlink" version= "1.1" width="720px" height="1424px" viewBox="0 0 720 1424">
<g id="layer1">
<g>
<g style="fill:rgb(72,194,250); fill-opacity:1.0; stroke-linejoin: miter">
<path d="M48.401638,389.9829C48.03503,389.91077,47.656364,389.9202,47.29294,390.01196L8.324053,399.82965C7.67074,399.99435,7.1099644,400.41214,6.7654366,400.99094C6.421023,401.56995,6.320868,402.26205,6.4878373,402.9147L9.720949,415.5687L10.427087,435.65363C10.454064,436.42212,10.828523,437.13672,11.444734,437.5962L16.330912,441.24005C16.29096,440.77887,16.376894,440.30127,16.605211,439.85974C17.135141,438.83508,18.267168,438.32422,19.344906,438.53662C19.574593,438.58173,19.801998,438.6598,20.020412,438.7729L24.85082,441.271L24.850931,441.271L24.85082,441.27203L31.614658,446.31525C31.794952,446.4497,31.95657,446.60742,32.0952,446.7846L37.277996,453.40442L313.9902,596.51324L313.98996,596.5142L313.98978,596.5131L37.277996,453.40442L22.15358,445.5824L22.099632,445.5421L28.313166,450.17596L60.703003,491.5466L72.09783,496.26877L72.097374,496.26968L66.71904,491.00858L78.50553,502.53458L72.09852,496.26907L72.09829,496.27L78.50553,502.53445L81.835815,505.79092L69.254456,500.577L149.09258,578.64923C149.22029,578.77435,149.36073,578.8853,149.51189,578.9805L192.59335,606.1696L145.44064,604.4615C145.16364,604.45135,144.8866,604.48676,144.62094,604.5666L106.33962,616.0455Q108.136116,618.143,109.91509,620.16876L145.38829,609.5313L145.38829,609.5323L109.91509,620.16876Q109.94857,620.20685,109.98202,620.2448L109.98179,620.2459L109.98179,620.2448Q113.6697,624.4417,117.28249,628.32996Q126.94357,643.0332,179.47163,667.22205Q188.76959,670.6802,198.17,673.5014L195.73491,613.2648L198.17,673.5015Q198.21391,673.5147,198.25648,673.5273L198.25626,673.52826L198.25626,673.5274Q200.73361,674.2701,203.21643,674.9682L203.21619,674.96906L203.21643,674.9683Q203.26035,674.9805,203.30292,674.99225L201.41423,628.26605L203.30292,674.9926Q212.74591,677.6442,222.28996,679.6573L201.41423,628.26605L201.41377,628.2669L222.28996,679.6573Q222.30475,679.6608,222.31795,679.6635Q222.35439,679.67084,222.3908,679.6784L201.493,628.2341L222.3908,679.6785Q224.28471,680.07733,226.1814,680.4506Q227.1618,680.6435,228.14313,680.83L202.83078,618.51306L228.14474,680.83014Q228.19412,680.83954,228.24353,680.84906L202.90999,618.4811L202.90976,618.48193L228.24512,680.8492Q242.67805,683.58344,257.3437,684.8675L202.90999,618.4811L202.90976,618.48193L202.90999,618.4811L257.34528,684.8675Q257.40405,684.8726,257.46277,684.8776L202.976,618.4269L257.46436,684.87775Q260.8584,685.1735,264.26514,685.39166L209.92296,619.1161L209.92273,619.1172L264.26672,685.39166Q264.29932,685.394,264.33185,685.3958L209.96028,619.08545L209.95483,619.08154L209.98782,619.046L209.95596,619.08057L302.19452,683.8818Q302.2268,683.87555,302.25934,683.86957L209.98782,619.046L302.26074,683.8692Q305.5487,683.2463,308.7923,682.43854L212.84464,615.03174L212.84576,615.03284L308.79364,682.43805Q308.85303,682.4233,308.9129,682.40826L212.8856,614.9463L308.9143,682.4079Q318.3156,680.05634,327.34564,676.15106L339.63626,670.019Q351.75027,663.1471,363.1566,653.3142L374.38565,642.74133Q375.51334,642.089,377.43356,638.72906L377.4304,638.72955L377.43063,638.7287Q377.45816,638.68585,377.48325,638.64215L377.48026,638.64264L212.91179,614.8568C212.91087,614.85657,212.9102,614.85645,212.90929,614.8563C212.88493,614.8513,212.86717,614.85315,212.85078,614.85974L212.85056,614.8606C212.86763,614.8528,212.88606,614.8513,212.90382,614.85474L377.4805,638.64154L377.48026,638.64264L377.4805,638.64154Q379.26517,635.5092,381.72244,630.0699L377.61868,628.3686L381.7227,630.0694Q381.8602,629.7653,381.99924,629.45416L377.61868,628.3686L381.99924,629.4539Q382.15158,629.1148,382.30563,628.767L368.03275,618.9089L368.0325,618.91L382.3066,628.7658Q382.44113,628.4627,382.57767,628.153Q382.7527,627.654,382.91956,627.1468L380.61658,625.26373L382.92023,627.1453Q383.01086,626.87054,383.09918,626.59344L382.4372,626.2054L383.09943,626.59235Q383.1053,626.57367,383.11145,626.555L382.4372,626.2054L383.11145,626.55414Q383.81342,624.3453,384.37186,621.9825L141.79518,423.84473L141.79495,423.84576L384.3721,621.98114Q384.3912,621.90045,384.41013,621.81976L141.88965,423.72906L384.4103,621.8182Q384.64188,620.8273,384.8481,619.8096L363.77756,572.08905L363.7773,572.0899L384.84897,619.80554Q384.87448,619.68066,384.89932,619.5553L364.02518,572.2801L384.90024,619.551Q385.74338,615.3131,386.15317,610.6107L369.69626,573.33734L386.15402,610.60547Q386.1677,610.44385,386.18137,610.28174L369.8408,573.2723L386.18185,610.27686Q387.14194,598.8009,385.54172,584.57825Q384.74637,578.751,383.86768,573.09607L383.86475,573.09656Q383.85535,573.01746,383.84308,572.9386L383.84015,572.9387L369.85196,573.11444L369.84897,573.1149L383.84033,572.93774Q383.4593,570.47144,383.05933,568.03735L367.61478,568.2315L367.59427,568.18463C367.24667,567.39813,366.54764,566.8759,365.76315,566.7214C365.53598,566.6767,365.3013,566.6628,365.0662,566.6823L274.83682,497.10562C274.75717,497.0439,274.6738,496.98727,274.5873,496.93582L129.33286,410.34232C129.12003,410.2156,128.8901,410.1208,128.65019,410.0607L48.52741,390.01093C48.485638,390.00046,48.443752,389.99124,48.401638,389.9829 Z M122.98686,413.8683L122.98686,413.8692L122.98686,413.8683C122.98686,413.8683,122.98686,413.8683,122.98686,413.8683 Z M350.32,600.5179L350.43768,600.6137C350.4195,600.63214,350.399,600.6474,350.3758,600.65704C350.399,600.6474,350.4195,600.63214,350.43494,600.61334L350.32,600.5179 Z M378.152,633.71173L378.04684,633.6965L378.15268,633.7227C378.13724,633.7752,378.0862,633.8105,378.0316,633.8027C378.0862,633.8105,378.13724,633.7752,378.15,633.7222L378.04684,633.6965L378.14926,633.71124 Z M204.38733,608.5968C204.38733,608.5969,204.38754,608.5969,204.38733,608.59717L204.38596,608.59766L204.27715,608.58093L204.38733,608.5968 Z"/>
</g>
<g style="fill:rgb(72,194,250); fill-opacity:1.0; stroke-linejoin: miter">
<path d="M426.01288,754.9869L426.01288,754.9869L426.01288,754.98724C426.01538,755.0722,426.0133,755.15704,426.0072,755.2419L426.0072,755.2419L414.11682,918.5319C414.01532,919.9279,412.8011,920.97723,411.4052,920.8757C410.00934,920.77374,408.95996,919.55975,409.06146,918.16376L409.06146,918.16376L420.9521,754.8737L420.9464,755.12836L420.9464,755.12823C420.9073,753.72906,422.0097,752.5632,423.409,752.5241C424.80823,752.4853,425.9737,753.5876,426.01288,754.9869 Z"/>
</g>
<g style="fill:rgb(72,194,250); fill-opacity:1.0; stroke-linejoin: miter">
<path d="M313.9902,596.5131L367.38303,624.1268L388.4919,632.8747C388.64737,632.9393,388.80856,632.98785,388.97263,633.0201C389.19302,633.0634,389.41885,633.0776,389.64444,633.06134C391.04056,632.96063,392.09085,631.7476,391.99045,630.3516C391.91873,629.35565,391.28067,628.5357,390.41428,628.184L313.9902,596.5131 Z"/>
</g>
<g style="fill:rgb(72,194,250); fill-opacity:1.0; stroke-linejoin: miter">
<path d="M426.51385,587.0458C426.36542,587.01685,426.2152,587.0897,426.14734,587.2262L401.09995,637.5041C401.07712,637.54987,401.0651,637.5994,401.06442,637.64923L401.0615,637.6485C401.00113,637.9124,400.89047,638.1695,400.72684,638.40656C400.67105,638.48724,400.61093,638.5634,400.5461,638.6358C400.51126,638.67487,400.48648,638.7205,400.4728,638.7691L400.46964,638.7685L308.17157,824.037L308.14905,824.0947L302.2956,844.5853C302.25525,844.72485,302.30945,844.8744,302.4297,844.95605L302.42694,844.95557C302.46014,844.9789,302.49866,844.99634,302.54028,845.00635C302.54486,845.0073,302.54938,845.0084,302.55396,845.0094C302.65228,845.02856,302.75018,845.0029,302.8246,844.9453L302.8239,844.9452L419.69714,755.4836L419.6999,755.4843C419.70514,755.4803,419.7099,755.47626,419.71472,755.4722C420.07733,755.1634,420.531,754.9825,421.0006,754.9528L421.0006,754.9528L421.00446,754.9526C421.15973,754.9432,421.2881,754.82806,421.3152,754.67474C421.39508,754.22064,421.6145,753.81305,421.93005,753.4998L421.92664,753.4992C422.01453,753.44037,422.07275,753.34125,422.07593,753.2288L426.78516,587.38574C426.78998,587.2279,426.6839,587.088,426.53046,587.04956C426.52502,587.0481,426.5193,587.047,426.51385,587.0458 Z"/>
</g>
<g style="fill:rgb(72,194,250); fill-opacity:1.0; stroke-linejoin: miter">
<path d="M431.7793,579.65173C431.74768,579.64526,431.71466,579.64526,431.6814,579.6522C431.5703,579.67554,431.48932,579.7722,431.48615,579.886L426.81647,744.3271C426.8133,744.4416,426.8891,744.543,427.0,744.5721C427.00476,744.57355,427.01,744.5744,427.01477,744.5755C427.12085,744.5965,427.22894,744.5456,427.27972,744.44904L470.69522,662.22784C470.73123,662.1595,470.7335,662.0782,470.70023,662.0081L431.9546,579.7881C431.91998,579.7158,431.8542,579.6664,431.7793,579.65173 Z"/>
</g>
<g style="fill:rgb(72,194,250); fill-opacity:1.0; stroke-linejoin: miter">
<path d="M456.51953,555.65076C456.48218,555.6433,456.44348,555.6527,456.41296,555.6769L434.2699,573.4597C434.23053,573.49133,434.21344,573.54285,434.22528,573.5917C434.22986,573.6101,434.23828,573.62695,434.2497,573.64124L434.2453,573.6405L467.8134,644.87213C467.83115,644.91046,467.86594,644.9362,467.9053,644.9439C467.92514,644.94794,467.94608,644.9472,467.96683,644.9411C468.0278,644.9234,468.06674,644.8636,468.05875,644.80035L456.62286,555.7612C456.61694,555.71484,456.58618,555.67505,456.54272,555.6577C456.53497,555.65466,456.52722,555.65234,456.51953,555.65076 Z"/>
</g>
<g style="fill:rgb(72,194,250); fill-opacity:1.0; stroke-linejoin: miter">
<path d="M490.311,542.03503C490.28824,542.0304,490.26407,542.032,490.24155,542.04016L461.1771,552.6741C461.12247,552.6941,461.08786,552.7478,461.09244,552.80566C461.09335,552.8187,461.09628,552.83093,461.10062,552.8425L461.09702,552.8417L472.738,643.4786C472.74527,643.5347,472.78763,643.5788,472.84134,643.5893C472.84866,643.59076,472.85617,643.59174,472.86368,643.59174C472.92764,643.5932,472.9832,643.5474,472.9941,643.4842L490.41342,542.18384C490.42117,542.1383,490.40433,542.09204,490.3688,542.0625C490.35196,542.04846,490.33194,542.03906,490.311,542.03503 Z"/>
</g>
<g style="fill:rgb(72,194,250); fill-opacity:1.0; stroke-linejoin: miter">
<path d="M493.9611,550.71747C493.95175,550.71576,493.9424,550.7148,493.93283,550.715C493.8707,550.7164,493.81857,550.76166,493.80832,550.82245L475.50223,657.27985C475.4904,657.3492,475.53568,657.4152,475.60464,657.4288L475.606,657.42914C475.6331,657.434,475.6597,657.4301,475.6827,657.41986L475.68137,657.41925L513.703,640.8504C513.74176,640.83344,513.7702,640.7984,513.7784,640.7568L513.7786,640.7557L513.7777,640.70294L494.0621,550.8167C494.051,550.76556,494.01047,550.7271,493.9611,550.71747 Z"/>
</g>
<g style="fill:rgb(72,194,250); fill-opacity:1.0; stroke-linejoin: miter">
<path d="M496.94946,540.6914C496.9087,540.6835,496.86664,540.6958,496.83655,540.72485C496.8051,540.7555,496.79144,540.8003,496.80103,540.84326L517.0131,632.99225C517.0243,633.0424,517.06415,633.0799,517.1126,633.0893C517.1222,633.09125,517.13153,633.0921,517.1413,633.09186C517.2026,633.0898,517.2533,633.0446,517.26263,632.98395L530.01385,549.04645L530.01385,549.04645C530.02435,548.9816,529.98315,548.91925,529.9191,548.90326L496.95563,540.69275C496.95355,540.69214,496.95172,540.6919,496.94946,540.6914 Z"/>
</g>
<g style="fill:rgb(72,194,250); fill-opacity:1.0; stroke-linejoin: miter">
<path d="M534.4003,553.1109C534.3801,553.107,534.3592,553.10785,534.3389,553.11395C534.2923,553.12823,534.2579,553.168,534.25037,553.2164L522.09186,633.25226C522.08167,633.3195,522.1263,633.38275,522.19275,633.3958C522.19385,633.39594,522.1948,633.39606,522.1955,633.3962C522.2396,633.4041,522.2825,633.3881,522.31067,633.3575L522.3102,633.35724L557.3454,595.98517L557.3775,595.9228L557.3777,595.9218L557.38025,595.89825L557.5035,579.205C557.5055,578.96857,557.54126,578.7402,557.6061,578.52606L557.60974,578.52655C557.6295,578.48065,557.62067,578.4273,557.5868,578.39044L534.46936,553.1496C534.45074,553.12933,534.42633,553.116,534.4003,553.1109 Z"/>
</g>
<g style="fill:rgb(72,194,250); fill-opacity:1.0; stroke-linejoin: miter">
<path d="M629.76434,588.7814C629.762,588.7809,629.7595,588.78064,629.757,588.7803L562.4663,580.0853C562.46423,580.0845,562.46173,580.084,562.4595,580.08374C562.4558,580.0829,562.45264,580.0824,562.44916,580.08203C562.39276,580.0763,562.3413,580.1145,562.33014,580.17004L562.3304,580.17004C562.33014,580.1715,562.3299,580.1732,562.32947,580.1747L562.32947,580.17456C562.32654,580.1914,562.3279,580.2079,562.33264,580.22363L562.3279,580.22253L562.21967,594.8241C562.21924,594.87744,562.2568,594.9226,562.308,594.93274C562.3114,594.9332,562.31506,594.93384,562.3185,594.9342C562.32324,594.9347,562.32806,594.9348,562.3328,594.9348L562.3285,594.9341L616.1129,595.57043C616.1307,595.57043,616.148,595.5665,616.16327,595.55884L616.16187,595.5585L629.7907,588.98816C629.83466,588.9669,629.85925,588.91943,629.85126,588.8716C629.8442,588.82605,629.8094,588.7903,629.76434,588.7814 Z"/>
</g>
<g style="fill:rgb(72,194,250); fill-opacity:1.0; stroke-linejoin: miter">
<path d="M638.5335,590.199L638.4599,590.2041L625.6165,596.3972C625.57825,596.4155,625.55597,596.4562,625.5614,596.4983C625.56573,596.53284,625.58826,596.5619,625.619,596.5757L625.6135,596.5747C625.6215,596.5786,625.6301,596.5813,625.63855,596.583C625.6438,596.584,625.6493,596.5845,625.65454,596.58496L625.6493,596.58374L683.07806,604.9076C683.12994,604.91516,683.1786,604.8805,683.1886,604.8291L683.1889,604.8281C683.1987,604.7792,683.16974,604.73083,683.1227,604.7156L638.5335,590.199 Z"/>
</g>
<g style="fill:rgb(72,194,250); fill-opacity:1.0; stroke-linejoin: miter">
<path d="M414.5492,765.2078C414.49182,765.1965,414.4306,765.20917,414.38123,765.24713L300.1618,852.6782C300.09393,852.73,300.06433,852.81775,300.0871,852.90015L308.44403,883.33527C308.46564,883.413,308.52893,883.4703,308.60565,883.4854C308.62115,883.48846,308.6375,883.4898,308.65393,883.4891C308.67554,883.48834,308.69672,883.4842,308.7165,883.4771L308.71466,883.47687L319.12555,879.8586L319.12665,879.8591C319.17242,879.8437,319.2116,879.81305,319.2378,879.7713C319.29468,879.68,319.35773,879.59235,319.42902,879.50726L319.42902,879.50726L414.66943,765.5478C414.7379,765.4659,414.73383,765.34564,414.65985,765.2684C414.62933,765.23627,414.5902,765.2159,414.5492,765.2078 Z"/>
</g>
<g style="fill:rgb(72,194,250); fill-opacity:1.0; stroke-linejoin: miter">
<path d="M412.20898,775.91205C412.13586,775.89764,412.05804,775.92303,412.00775,775.98346L323.734,881.6065C323.68323,881.6668,323.67096,881.7508,323.7024,881.8233L333.08347,903.7166C333.111,903.78156,333.16904,903.8266,333.23526,903.83966C333.24918,903.84247,333.26285,903.8437,333.2767,903.8437L333.27377,903.8431L341.941,904.4539C342.025,904.46,342.1019,904.41534,342.13992,904.34503L342.13968,904.3448L412.3521,776.21844C412.40405,776.1237,412.3756,776.0052,412.28656,775.94464C412.26245,775.92816,412.23584,775.9174,412.20898,775.91205 Z"/>
</g>
<g style="fill:rgb(72,194,250); fill-opacity:1.0; stroke-linejoin: miter">
<path d="M412.8058,785.36957C412.71814,785.35236,412.6264,785.393,412.58154,785.4744L346.5867,905.9051C346.55484,905.96356,346.55276,906.034,346.58078,906.09454C346.59238,906.1187,346.60812,906.14044,346.62698,906.1584L346.62265,906.15753L359.03015,922.6525C359.06177,922.6949,359.10754,922.7225,359.15717,922.73224C359.18176,922.7371,359.2077,922.7375,359.2334,922.7332L359.2309,922.7326L368.59967,921.23175L368.60065,921.2319C368.66473,921.2226,368.72144,921.1838,368.75336,921.12665C368.78748,921.065,368.78857,920.9902,368.7558,920.9274C368.47424,920.3885,368.4037,919.7414,368.61035,919.11896L412.96423,785.6413C412.99835,785.5384,412.9485,785.4262,412.84924,785.3831C412.8349,785.377,412.82056,785.3725,412.8058,785.36957 Z"/>
</g>
<g style="fill:rgb(72,194,250); fill-opacity:1.0; stroke-linejoin: miter">
<path d="M417.35352,787.75714C417.2506,787.7369,417.1477,787.7961,417.1145,787.89655L373.02283,920.585C372.93542,920.8481,372.8059,921.08466,372.64386,921.2913C372.59875,921.3487,372.58673,921.42535,372.61218,921.4936C372.63538,921.5557,372.6864,921.60297,372.7492,921.6215L372.7458,921.6208L390.2729,929.15326C390.28656,929.15924,390.3004,929.1635,390.31525,929.1662C390.36145,929.1755,390.4104,929.16864,390.45294,929.14594C390.49646,929.1231,390.53015,929.086,390.54858,929.04156L390.54834,929.04144L400.15274,906.39923L400.15616,906.39996C400.1614,906.3879,400.1655,906.37494,400.16843,906.3619C400.18845,906.26984,400.1448,906.17596,400.06168,906.1318C399.20462,905.6788,398.6913,904.71564,398.8541,903.70636L417.5199,787.99603C417.5374,787.8881,417.46918,787.785,417.36304,787.7591C417.35986,787.75824,417.3567,787.7575,417.35352,787.75714 Z"/>
</g>
<g style="fill:rgb(72,194,250); fill-opacity:1.0; stroke-linejoin: miter">
<path d="M423.52167,789.73004C423.50873,789.72736,423.49524,789.72626,423.4818,789.726C423.37164,789.72577,423.28015,789.8105,423.27197,789.9202L414.0647,916.3659C414.0608,916.41705,414.07605,916.46783,414.10724,916.5087L414.2798,916.73334L414.32782,916.7784L433.13593,929.67694C433.15985,929.6934,433.18628,929.7044,433.2138,929.70966C433.25366,929.71783,433.2953,929.7139,433.33374,929.6983C433.3991,929.6716,433.44647,929.61383,433.4599,929.5446L433.46008,929.5439L433.46332,929.48395L432.464,918.7327L432.45984,918.73175C432.47058,918.67377,432.4569,918.6132,432.4198,918.56525C432.14685,918.21173,431.97247,917.7758,431.94177,917.2962L423.69012,789.92194C423.68353,789.82574,423.61322,789.7481,423.52167,789.73004 Z"/>
</g>
<g style="fill:rgb(72,194,250); fill-opacity:1.0; stroke-linejoin: miter">
<path d="M428.49323,788.0739C428.4709,788.0694,428.4477,788.06854,428.42426,788.07196C428.31543,788.08673,428.2367,788.1833,428.2437,788.2928L436.0382,908.61456C436.04437,908.7105,436.1145,908.7885,436.20667,908.8066C436.21008,908.8072,436.21417,908.8079,436.21783,908.80853L436.22144,908.8094L450.93344,912.2275C451.36002,912.3266,451.7498,912.544,452.05844,912.8555L455.19394,916.0192C455.2242,916.04987,455.262,916.06964,455.30203,916.07745C455.34848,916.0865,455.39786,916.08,455.44205,916.0562C455.52377,916.0124,455.56656,915.9196,455.54745,915.8288L428.65778,788.23615C428.64008,788.1517,428.57355,788.08954,428.49323,788.0739 Z"/>
</g>
<g style="fill:rgb(72,194,250); fill-opacity:1.0; stroke-linejoin: miter">
<path d="M432.292,781.51996C432.25763,781.51337,432.22144,781.5152,432.18616,781.5268C432.0846,781.56,432.02454,781.6645,432.04663,781.769L461.259,920.3837C461.2982,920.5688,461.31387,920.7541,461.30838,920.9356C461.3066,920.99286,461.32864,921.0485,461.36874,921.08954C461.39877,921.1193,461.4368,921.1397,461.47733,921.14777C461.47867,921.1479,461.48,921.14813,461.4814,921.1484L461.48575,921.14935L480.928,926.5063C480.93326,926.5079,480.93826,926.509,480.9435,926.5101C480.99515,926.5201,481.04892,926.51056,481.0942,926.4826C481.13925,926.45465,481.17203,926.4107,481.1857,926.3599L481.1857,926.3599L487.6309,903.2748L487.63522,903.2755C487.64914,903.22705,487.64523,903.17444,487.62296,903.1278C487.61838,903.1185,487.60794,903.0958,487.60355,903.08655L432.44226,781.63934C432.4135,781.5755,432.3562,781.5329,432.292,781.51996 Z"/>
</g>
<g style="fill:rgb(72,194,250); fill-opacity:1.0; stroke-linejoin: miter">
<path d="M434.6394,774.4322C434.5907,774.42255,434.53857,774.43024,434.4928,774.45734C434.4004,774.51154,434.36377,774.6269,434.40814,774.7243L491.1271,899.6008C491.15536,899.66345,491.21207,899.70703,491.27762,899.71985C491.29355,899.7229,491.3099,899.72424,491.32675,899.7235L511.90814,898.8645C512.0049,898.8605,512.08636,898.7908,512.10504,898.6957L512.1052,898.69495L512.10754,898.629L509.37775,876.2272C509.3559,876.048,509.35498,875.8707,509.37347,875.69885L509.3689,875.698C509.39966,875.6293,509.39142,875.5488,509.34613,875.4877L434.76733,774.5131C434.73547,774.46954,434.68903,774.44196,434.6394,774.4322 Z"/>
</g>
<g style="fill:rgb(72,194,250); fill-opacity:1.0; stroke-linejoin: miter">
<path d="M438.4577,771.0705C438.39398,771.0577,438.32544,771.0754,438.2749,771.1224C438.1964,771.19476,438.18542,771.31464,438.24872,771.40045L513.3361,873.06506C513.36774,873.1079,513.4137,873.1362,513.46405,873.14624C513.49225,873.1516,513.5214,873.15137,513.5508,873.14514C513.55145,873.1448,513.5521,873.14453,513.5528,873.14453L513.55096,873.14404L532.8983,868.79663C532.9794,868.7782,533.04193,868.714,533.05786,868.63257L533.0581,868.6317L533.06195,868.598L533.5608,853.1575L533.56104,853.1576C533.56323,853.0946,533.53687,853.0331,533.48816,852.99133L438.55402,771.11725C438.5255,771.09296,438.4923,771.0772,438.4577,771.0705 Z"/>
</g>
<g style="fill:rgb(72,194,250); fill-opacity:1.0; stroke-linejoin: miter">
<path d="M415.35834,832.08594L415.3014,832.07947L403.79532,903.40643L403.82425,903.4383L403.8174,903.4372C404.2493,903.59906,404.63577,903.8796,404.92606,904.2575L409.60864,910.35565L409.65942,910.3438L409.65924,910.34283L409.65967,910.33954L415.35834,832.08594 Z"/>
</g>
<g style="fill:rgb(72,194,250); fill-opacity:1.0; stroke-linejoin: miter">
<path d="M332.25916,765.0218C332.23706,765.0173,332.21387,765.0213,332.19403,765.03424L292.23547,790.87244L292.23254,790.87427L292.2328,790.87427C292.14966,790.92773,292.0641,790.9758,291.9771,791.01904C291.94666,791.0342,291.92773,791.0653,291.92798,791.09875L291.9259,791.0984L286.32928,807.9603L286.3291,808.01404L292.95642,829.6791C292.9662,829.7107,292.99237,829.73376,293.02356,829.7401C293.03088,829.7412,293.0379,829.74194,293.04517,829.74146C293.06592,829.74036,293.08478,829.7324,293.0996,829.71936L293.09894,829.7191L305.07886,819.4005L305.07886,819.4005C305.1761,819.317,305.27692,819.24304,305.38275,819.17773L305.37982,819.17725L305.36047,819.1847L305.42444,819.1377L332.3213,765.14777C332.33905,765.1121,332.33087,765.0689,332.30127,765.0424C332.28894,765.0317,332.27435,765.0246,332.25916,765.0218 Z"/>
</g>
<g style="fill:rgb(72,194,250); fill-opacity:1.0; stroke-linejoin: miter">
<path d="M352.99728,723.3946C352.9857,723.3924,352.97366,723.39264,352.96182,723.39484L295.5196,735.518L295.5196,735.518C295.35046,735.5538,295.18042,735.571,295.0113,735.5717C294.97485,735.57196,294.94324,735.59406,294.93,735.62604L294.92572,735.6252L285.7682,746.7262C285.7484,746.75037,285.74274,746.78284,285.75317,746.81226L285.75183,746.81177L292.5235,784.71545C292.5301,784.7521,292.55853,784.77966,292.59357,784.78674C292.59882,784.7877,292.6045,784.7882,292.60992,784.7886C292.62817,784.7886,292.6455,784.7831,292.6598,784.77356L292.6587,784.7733L336.0624,756.70807L336.0574,756.71L336.06882,756.7055C336.2457,756.5799,336.43643,756.4793,336.63858,756.40533L336.63535,756.40485L336.63376,756.4052L336.70047,756.3576L353.05923,723.5207C353.0745,723.4904,353.07083,723.45416,353.05008,723.4274C353.0367,723.40985,353.0178,723.39874,352.99728,723.3946 Z"/>
</g>
<g style="fill:rgb(72,194,250); fill-opacity:1.0; stroke-linejoin: miter">
<path d="M394.02756,641.0332C394.02597,641.03296,394.02438,641.0326,394.02255,641.0325L212.91179,614.8568C212.90906,614.85596,212.90633,614.85535,212.90382,614.85474C212.88606,614.8513,212.86739,614.8528,212.85033,614.85974C212.82118,614.87146,212.80002,614.89746,212.79387,614.9282L212.79364,614.9293C212.78886,614.95435,212.79456,614.98096,212.80936,615.0016C212.81891,615.0148,212.83142,615.02515,212.846,615.032L212.84464,615.03174L355.5179,715.26337L355.57596,715.2778L355.5386,715.2725C355.8539,715.4052,356.14548,715.6058,356.39114,715.8757L356.46237,715.9019L356.40976,715.88873L356.65927,716.0651C356.6702,716.0728,356.68246,716.07794,356.69504,716.08026C356.7123,716.0838,356.73074,716.08246,356.74783,716.0755C356.76968,716.0667,356.78745,716.05023,356.7972,716.0297L356.79703,716.0296L394.0931,641.1665C394.1063,641.13965,394.10605,641.10803,394.09195,641.0814C394.079,641.0565,394.05508,641.0387,394.02756,641.0332 Z"/>
</g>
<g style="fill:rgb(72,194,250); fill-opacity:1.0; stroke-linejoin: miter">
<path d="M209.98782,619.046L209.92296,619.1161L275.21527,698.7443L275.29816,698.7237L275.24463,698.7602C275.27148,698.76495,275.27765,698.7659,275.30316,698.7712L275.30518,698.77167C275.30084,698.77045,275.32043,698.7745,275.32452,698.7753L275.3261,698.7758L343.0253,712.62103L343.0825,712.5833L343.0825,712.58246L343.06314,712.5334L209.98782,619.046 Z"/>
</g>
<g style="fill:rgb(72,194,250); fill-opacity:1.0; stroke-linejoin: miter">
<path d="M277.14655,704.2229L277.0896,704.28064L278.76562,711.9099L278.859,711.90894L278.8062,711.9464L290.27228,713.57465L290.28912,713.5739L290.29144,713.5734L290.3142,713.5616C290.79517,713.11676,291.45032,712.8614,292.15643,712.90497L330.79364,715.2928L330.84387,715.25397L330.84412,715.25287L330.80634,715.19635L277.14655,704.2229 Z"/>
</g>
<g style="fill:rgb(72,194,250); fill-opacity:1.0; stroke-linejoin: miter">
<path d="M294.45575,718.03754L294.42596,718.06757L294.45215,718.06757L294.45575,718.03754 Z M294.42596,718.06757L294.40637,718.06744L294.40613,718.06854L294.41437,718.0788L294.42596,718.06757 Z M294.41437,718.0788L294.4073,718.08575L294.42004,718.08575L294.41437,718.0788 Z M294.4073,718.08575L294.40637,718.08563L294.40637,718.0865L294.4073,718.08575 Z M294.4485,718.12115L294.451,718.1248L294.451,718.1258L294.44464,718.12506L294.4485,718.12115 Z M340.55362,720.87616L294.4569,718.0295L294.4569,718.0295L294.45532,718.0295L294.45508,718.0295L294.45642,718.03156L294.45575,718.03754L294.45898,718.0345L294.46216,718.0385L294.4585,718.0678L294.45215,718.06757L294.44965,718.08575L294.42004,718.08575L294.4455,718.11774L294.44464,718.12506L294.40662,718.08673L296.69916,730.1789L296.7929,730.1795L296.7567,730.21625L340.5607,720.9716L340.55362,720.87616 Z"/>
</g>
<g style="fill:rgb(72,194,250); fill-opacity:1.0; stroke-linejoin: miter">
<path d="M202.92639,618.39734C202.90634,618.3932,202.88495,618.39636,202.86629,618.4076C202.8301,618.4293,202.81506,618.474,202.83078,618.51306L231.944,690.1834L231.9451,690.18365C232.31116,691.0843,232.10196,692.0859,231.4762,692.76556C231.45526,692.7884,231.44843,692.82074,231.45798,692.85004C231.4639,692.86835,231.47595,692.8841,231.49167,692.8945L231.49008,692.8941L239.1206,700.6955C239.13312,700.70795,239.14862,700.7164,239.16522,700.71954C239.17181,700.7211,239.1789,700.7214,239.18591,700.7211L239.18411,700.7209L255.75523,702.2133L255.84084,702.14923L255.7689,702.2126L270.69238,701.22455L270.7707,701.1557L270.77094,701.15485L270.75317,701.0843L202.976,618.4269C202.9628,618.411,202.94528,618.401,202.92639,618.39734 Z"/>
</g>
<g style="fill:rgb(72,194,250); fill-opacity:1.0; stroke-linejoin: miter">
<path d="M201.43062,628.1823C201.41946,628.18024,201.40787,628.1801,201.39603,628.1827C201.35551,628.19135,201.32729,628.22797,201.32887,628.2696L203.47389,681.3378L203.47504,681.33795C203.50052,681.9838,203.26765,682.6175,202.83083,683.09393C202.80988,683.11676,202.80283,683.1491,202.8126,683.1783C202.81602,683.18854,202.82103,683.1978,202.82764,683.20575L202.82626,683.2056L206.98405,691.5223C206.9959,691.54645,207.01842,691.5627,207.04393,691.56793C207.05302,691.5695,207.06236,691.57,207.07191,691.5688C207.07283,691.56866,207.07352,691.5684,207.07442,691.5684L207.07306,691.56793L226.67355,690.5236L226.75278,690.4548L226.75299,690.4539L226.74799,690.40533L201.493,628.2341C201.48207,628.2066,201.45795,628.1878,201.43062,628.1823 Z"/>
</g>
<g style="fill:rgb(72,194,250); fill-opacity:1.0; stroke-linejoin: miter">
<path d="M195.75151,613.18115C195.73741,613.17847,195.72307,613.1792,195.70918,613.1835L108.36811,640.88025L108.36788,640.8801C108.33375,640.88635,108.306206,640.9126,108.29937,640.94763L108.29914,640.9486C108.29595,640.96423,108.29731,640.98047,108.30302,640.995L108.30256,640.995L110.135704,648.729C110.143684,648.7621,110.17008,648.78687,110.202415,648.7932C110.20469,648.7937,110.20696,648.7942,110.20948,648.79443L110.209694,648.7943L128.98705,653.78467L128.98705,653.78467C129.07787,653.80896,129.16597,653.8379,129.25337,653.8721L129.25337,653.8721L152.54134,663.0204L152.54066,663.02026L152.57161,663.0325L152.57115,663.0325L175.758,672.4949L175.76231,672.49646L198.41356,680.29926C198.4172,680.3005,198.42085,680.30145,198.42496,680.3022C198.44476,680.3061,198.46593,680.3028,198.4839,680.2923C198.50531,680.2802,198.5201,680.2592,198.52512,680.23505L198.52533,680.2341L198.5267,680.2143L195.82025,613.2612C195.81914,613.23474,195.8057,613.2102,195.78384,613.19495C195.77405,613.1881,195.7629,613.1835,195.75151,613.18115 Z"/>
</g>
<g style="fill:rgb(72,194,250); fill-opacity:1.0; stroke-linejoin: miter">
<path d="M160.19798,579.61395C160.14905,579.6043,160.09964,579.62994,160.08008,579.6767C160.05936,579.7247,160.07687,579.7801,160.12105,579.8078L203.18929,606.9889C203.78136,607.3623,204.16675,607.9596,204.28398,608.6166C204.29172,608.6604,204.32541,608.694,204.36774,608.70215C204.37389,608.7035,204.38026,608.7041,204.38687,608.7042L204.38574,608.704L378.0316,633.8027C378.08737,633.8107,378.14023,633.7735,378.15085,633.7181L378.1511,633.717C378.16202,633.66144,378.1274,633.6071,378.07236,633.59357L160.20323,579.6152C160.2014,579.6148,160.19958,579.6143,160.19798,579.61395 Z"/>
</g>
<g style="fill:rgb(72,194,250); fill-opacity:1.0; stroke-linejoin: miter">
<path d="M186.10895,610.915C186.10394,610.9141,186.09915,610.9135,186.09439,610.91327L145.6922,609.451L145.69173,609.45074C145.67763,609.4484,145.66327,609.44916,145.64917,609.4533L87.039635,627.02844L87.039635,627.02844C87.00185,627.03455,86.971344,627.0635,86.96384,627.1017L86.96361,627.10266C86.95974,627.1222,86.96224,627.1417,86.970436,627.1593L86.970436,627.1593L89.76217,635.52C89.772865,635.55225,89.79995,635.5752,89.83205,635.5814C89.83979,635.583,89.847755,635.5836,89.85594,635.583C89.86005,635.5829,89.863914,635.58215,89.86801,635.5814L89.86779,635.5814L104.725746,634.6979L104.725746,634.6979C104.93697,634.68506,105.14344,634.69995,105.34307,634.73914C106.094505,634.8871,106.738014,635.3832,107.07105,636.0773C107.08402,636.1039,107.108604,636.12244,107.136604,636.1278C107.14616,636.1299,107.15618,636.13025,107.16621,636.1288C107.17553,636.12756,107.18464,636.125,107.19283,636.12134L107.192604,636.1211L186.11896,611.0938C186.16176,611.0804,186.18861,611.0379,186.1827,610.99335C186.17702,610.95355,186.14697,610.92267,186.10895,610.915 Z"/>
</g>
<g style="fill:rgb(72,194,250); fill-opacity:1.0; stroke-linejoin: miter">
<path d="M55.64874,396.86395C55.581013,396.85062,55.512386,396.88544,55.48382,396.94894C55.453884,397.01474,55.475513,397.0926,55.535038,397.13358L350.23468,600.64154C350.25146,600.65326,350.27087,600.6613,350.2904,600.665C350.3189,600.6707,350.34845,600.668,350.3758,600.65704C350.42267,600.6379,350.45636,600.59686,350.46594,600.5474L350.46613,600.5463C350.47687,600.49225,350.4571,600.4367,350.41425,600.4018L124.0005,415.46866L124.0005,415.46866C123.49106,415.05255,123.19833,414.46982,123.136185,413.86398L123.136185,413.86398C123.13435,413.7985,123.08951,413.7399,123.023056,413.7234L55.656246,396.86554C55.653744,396.86496,55.65124,396.8644,55.64874,396.86395 Z"/>
</g>
<g style="fill:rgb(72,194,250); fill-opacity:1.0; stroke-linejoin: miter">
<path d="M141.91855,423.58228C141.86188,423.57123,141.80202,423.59344,141.76718,423.64325C141.72234,423.70728,141.73439,423.79535,141.79518,423.84473L386.39236,623.63104C386.41147,623.6469,386.43417,623.65717,386.45792,623.6618C386.48404,623.66693,386.51138,623.6652,386.53732,623.6557C386.58676,623.638,386.62338,623.59564,386.6334,623.5439L386.63364,623.543L386.62363,623.4537L363.91434,572.0284L363.8688,571.9704L271.97092,501.10837L271.96927,501.108C271.96017,501.0986,271.94992,501.09024,271.93808,501.08334L141.96614,423.6006C141.95111,423.59174,141.93495,423.58557,141.91855,423.58228 Z"/>
</g>
<g style="fill:rgb(72,194,250); fill-opacity:1.0; stroke-linejoin: miter">
<path d="M426.95166,574.71655L426.9355,574.71436L404.66965,572.6787L404.66666,572.6781C404.65665,572.67615,404.6462,572.6753,404.6357,572.6753L369.85196,573.11444L369.8492,573.1141C369.84036,573.1137,369.8315,573.1141,369.8226,573.1149C369.75388,573.12286,369.69852,573.17413,369.68533,573.2419L369.68576,573.242C369.67966,573.27374,369.68283,573.30695,369.69626,573.33734L395.00888,630.6574L395.0535,630.7161L397.96902,633.0987C397.9893,633.11554,398.01364,633.1265,398.03867,633.13153C398.06644,633.1369,398.0956,633.1348,398.12314,633.1252C398.16226,633.111,398.1937,633.0821,398.21146,633.0456L398.21127,633.0456L426.958,575.344L426.96075,575.3446C426.96783,575.33093,426.97302,575.31604,426.9756,575.3004C426.99536,575.18787,427.02313,575.077,427.05933,574.968L427.0605,574.96436L427.06024,574.964L427.0605,574.96387C427.06592,574.94836,427.06775,574.94275,427.07324,574.92737L427.07935,574.9043L427.07983,574.9033C427.09668,574.8174,427.0409,574.734,426.95483,574.71704 Z"/>
</g>
<g style="fill:rgb(72,194,250); fill-opacity:1.0; stroke-linejoin: miter">
<path d="M145.81421,609.4554L145.6922,609.451L145.69151,609.4517L145.81421,609.4554 Z M145.6922,609.451C145.67807,609.4489,145.66602,609.44916,145.65462,609.45184L145.6544,609.4526C145.66692,609.44904,145.67944,609.4488,145.69173,609.45074 Z"/>
</g>
<g style="fill:rgb(72,194,250); fill-opacity:1.0; stroke-linejoin: miter">
<path d="M209.96028,619.08545L264.3332,685.39594Q269.47406,685.7238,274.64343,685.8748Q288.5268,686.4046,301.7021,683.9736Q301.94794,683.92816,302.1931,683.8818L209.96028,619.08545 Z"/>
</g>
<g style="fill:rgb(72,194,250); fill-opacity:1.0; stroke-linejoin: miter">
<path d="M186.17929,610.9782L186.09097,611.0058L186.17815,610.9781 Z"/>
</g>
<g style="fill:rgb(72,194,250); fill-opacity:1.0; stroke-linejoin: miter">
<path d="M152.32454,572.5508L373.7145,627.4014L373.71475,627.4014L373.7145,627.4024L152.32454,572.5508 Z"/>
</g>
<g style="fill:rgb(72,194,250); fill-opacity:1.0; stroke-linejoin: miter">
<path d="M72.09783,496.26877L78.5053,502.53555L78.5053,502.5364L72.09852,496.2692L72.09783,496.26877 Z"/>
</g>
<g style="fill:rgb(72,194,250); fill-opacity:1.0; stroke-linejoin: miter">
<path d="M60.703003,491.5466L62.831154,494.26505L60.703003,491.5466 Z"/>
</g>
<g style="fill:rgb(72,194,250); fill-opacity:1.0; stroke-linejoin: miter">
<path d="M123.061966,413.88718L123.14119,413.90686C123.18579,414.27722,123.316696,414.6377,123.5309,414.95505L123.5309,414.95602C123.316696,414.6377,123.18579,414.27722,123.14119,413.90686L123.061966,413.88718 Z"/>
</g>
<g style="fill:rgb(72,194,250); fill-opacity:1.0; stroke-linejoin: miter">
<path d="M122.40071,413.56766L122.97638,413.71167L122.97615,413.7126L122.40071,413.56766 Z"/>
</g>
<g style="fill:rgb(72,194,250); fill-opacity:1.0; stroke-linejoin: miter">
<path d="M55.475628,396.97446L55.476192,396.97467L55.474827,396.97537C55.47494,396.97433,55.47494,396.97433,55.47494,396.97433 Z"/>
</g>
</g>
<g>
<g style="fill:rgb(49,148,194); fill-opacity:1.0; stroke-linejoin: miter">
<path d="M711.65985,614.0707L711.65985,614.0707L618.23773,600.53156L618.5712,600.55756L559.36,599.8577L561.2384,599.0568L519.6498,643.4202C519.41394,643.6718,519.12915,643.87274,518.81323,644.01044L518.81323,644.01044L475.07767,663.0705L476.306,661.9307L426.26465,756.6995L425.6787,753.59686L537.5785,850.10254C538.15875,850.60266,538.48126,851.338,538.4565,852.1035L538.4565,852.1035L537.8551,870.71594C537.8178,871.8701,537.00494,872.8535,535.8781,873.1067L535.8781,873.1067L512.24115,878.4187L514.20135,875.6395L517.263,900.7654C517.3486,901.46716,517.1369,902.173,516.6791,902.7119C516.22156,903.251,515.5596,903.57446,514.853,903.6039L514.853,903.6039L490.4811,904.6223L492.8162,902.7717L485.18686,930.0988C484.81125,931.44354,483.41904,932.2315,482.07297,931.8609L482.07297,931.8609L457.93576,925.21136C457.509,925.09357,457.12064,924.8665,456.80875,924.55194L456.80875,924.55194L448.60703,916.2757L449.83383,916.9605L433.47827,913.16034L436.57544,910.45734L438.8013,934.4151C438.89236,935.394,438.40933,936.33673,437.56186,936.8344C436.7144,937.3327,435.65536,937.2955,434.84485,936.7397L434.84485,936.7397L411.24792,920.55853C411.02826,920.4078,410.83362,920.2233,410.67133,920.01227L410.67133,920.01227L400.929,907.3276L405.27182,906.77374L394.0276,933.2834C393.76422,933.9039,393.26428,934.3942,392.63922,934.6452C392.0135,934.89655,391.31323,934.8881,390.6941,934.62177L390.6941,934.62177L369.66003,925.58356L371.06152,925.7575L358.49152,927.77216C357.56415,927.92084,356.63013,927.544,356.06537,926.7933L356.06537,926.7933L342.28494,908.4738L344.1321,909.47845L331.37805,908.58075C330.4306,908.5141,329.60046,907.92365,329.22644,907.05096L329.22644,907.05096L318.76294,882.63336L321.92432,884.0291L307.75183,888.956C307.08942,889.1862,306.36102,889.1318,305.74,888.80536C305.11945,888.4788,304.66144,887.9097,304.4757,887.23346L304.4757,887.23346L295.21185,853.4971C295.08893,853.0493,295.09143,852.5763,295.21893,852.1299L295.21893,852.1299L304.23846,820.55774L308.32892,823.1742L293.4074,836.0265C292.75867,836.5852,291.87177,836.7787,291.04956,836.5408C290.2271,836.3031,289.58063,835.6665,289.32996,834.84753L289.32996,834.84753L281.33008,808.6985C281.17615,808.1958,281.18256,807.65784,281.34827,807.15894L281.34827,807.15894L288.13373,786.7135L288.0443,787.9575L280.64026,746.51917C280.50964,745.7871,280.7072,745.0342,281.18024,744.4607L281.18024,744.4607L292.6026,730.6152L292.0677,732.70013L289.04053,716.7353L291.17462,718.7724L276.35913,716.6697C275.31152,716.521,274.46698,715.73755,274.2398,714.70435L274.2398,714.70435L271.8836,703.9786L274.52625,705.9635L255.90092,707.1979C255.76936,707.20654,255.63759,707.2051,255.50621,707.19324L255.50621,707.19324L237.79669,705.59937C237.19595,705.54504,236.63416,705.2787,236.21255,704.84717L236.21255,704.84717L226.25903,694.67267L228.20554,695.4312L205.67172,696.6329C204.66466,696.6868,203.72159,696.138,203.2704,695.2358L203.2704,695.2358L197.97833,684.6525L199.41995,685.9152L174.07465,677.18567C174.03004,677.1703,173.98587,677.15356,173.94238,677.13574L173.94238,677.13574L150.68816,667.64624L150.71912,667.65857L127.4314,658.51025L127.70729,658.6008L107.4519,653.2175C106.54978,652.9778,105.85207,652.2612,105.63697,651.3528L105.63697,651.3528L102.40501,637.72L105.0212,639.66504L88.21197,640.66486C87.06811,640.7327,86.02076,640.0247,85.65791,638.93774L85.65791,638.93774L81.418884,626.2457C81.20172,625.5951,81.25726,624.88464,81.573,624.276C81.888954,623.667,82.437775,623.2125,83.09473,623.0155L83.09473,623.0155L144.62094,604.5666C144.8866,604.48676,145.16364,604.45135,145.44064,604.4615L145.44064,604.4615L201.98512,606.50964L200.54099,611.1854L149.51189,578.9805C149.36073,578.8853,149.22029,578.77435,149.09258,578.64923L149.09258,578.64923L63.05481,494.51456C62.974915,494.4363,62.90013,494.35318,62.831154,494.26505L62.831154,494.26505L28.104307,449.90912L28.58462,450.37836L11.444734,437.5962C10.828523,437.13672,10.454064,436.42212,10.427087,435.65363L10.427087,435.65363L9.711386,415.29553L9.788786,415.83377L6.4878373,402.9147C6.320868,402.26205,6.421023,401.56995,6.7654366,400.99094C7.1099644,400.41214,7.67074,399.99435,8.324053,399.82965L8.324053,399.82965L47.29294,390.01196C47.698128,389.90973,48.122097,389.90952,48.52741,390.01093L48.52741,390.01093L128.65019,410.0607C128.8901,410.1208,129.12003,410.2156,129.33286,410.34232L129.33286,410.34232L274.5873,496.93582C274.6738,496.98727,274.75717,497.0439,274.83682,497.10562L274.83682,497.10562L367.78207,568.7764L366.20255,568.2493L404.7053,567.7638C404.79318,567.7628,404.88107,567.76624,404.96848,567.7742L404.96848,567.7742L431.56677,570.2073L429.74884,570.755L456.51245,549.2627C456.72736,549.0897,456.9693,548.9535,457.2286,548.8585L457.2286,548.8585L494.1523,535.35046C494.62766,535.1764,495.14413,535.1489,495.63535,535.2711L495.63535,535.2711L532.6736,544.4965C533.15656,544.61725,533.5937,544.877,533.9299,545.2442L533.9299,545.2442L561.7235,575.59045L560.1795,574.7888L638.00354,584.84607C638.15967,584.8662,638.3138,584.90076,638.4634,584.94946L638.4634,584.94946L712.8076,609.15295C714.0589,609.5602,714.79034,610.8572,714.4914,612.1387C714.1921,613.42004,712.96216,614.2593,711.65985,614.0707L711.65985,614.0707 M712.3867,609.05457L711.239,613.9724L636.8943,589.76904L637.3541,589.8727L559.5298,579.8153C558.9368,579.7389,558.3898,579.4547,557.9858,579.014L557.9858,579.014L530.19214,548.66754L531.4486,549.4152L494.41043,540.1896L495.8937,540.11035L458.97,553.6185L459.68607,553.2145L432.92255,574.70703C432.41058,575.11804,431.75885,575.31445,431.1051,575.25476L431.1051,575.25476L404.50687,572.822L404.76956,572.8324L366.2665,573.31757C365.69577,573.32465,365.13925,573.139,364.68716,572.7902L364.68716,572.7902L271.74185,501.11954L271.99185,501.28928L126.737366,414.69595L127.4198,414.97766L47.29705,394.92792L48.531406,394.92697L9.562162,404.74478L11.398488,401.65988L14.699427,414.579C14.744616,414.75522,14.770342,414.93558,14.776831,415.11737L14.776831,415.11737L15.492529,435.47565L14.474772,433.53314L31.614658,446.31525C31.794952,446.4497,31.95657,446.60742,32.0952,446.7846L32.0952,446.7846L66.82216,491.14023L66.59862,490.8906L152.63617,575.0255L152.21687,574.69434L203.246,606.89905C204.21477,607.5105,204.65298,608.6958,204.31471,609.7903C203.97667,610.88477,202.94662,611.61646,201.80185,611.5748L201.80185,611.5748L145.25719,609.52655L146.07668,609.4217L84.55069,627.8705L86.226295,624.64L90.465324,637.33215L87.91103,635.60547L104.72028,634.6057C105.94926,634.53235,107.052605,635.3529,107.33648,636.55066L107.33648,636.55066L110.56869,650.1837L108.75373,648.3191L129.00911,653.702C129.10268,653.7272,129.19464,653.75745,129.28479,653.7926L129.28479,653.7926L152.57253,662.9408L152.60349,662.95325L175.85722,672.443L175.7252,672.39343L201.07053,681.123C201.69743,681.33905,202.2153,681.7924,202.5119,682.3857L202.5119,682.3857L207.80356,692.9688L205.40198,691.57184L227.93558,690.36993C228.6633,690.3311,229.3724,690.60724,229.88184,691.12836L229.88184,691.12836L239.83539,701.30316L238.25125,700.5511L255.96056,702.1452L255.56563,702.14056L274.19116,700.90607C275.44177,700.8233,276.56494,701.66693,276.83398,702.89105L276.83398,702.89105L279.19043,713.6167L277.0714,711.65125L291.88666,713.75397C292.9607,713.90656,293.81842,714.7254,294.02032,715.7912L294.02032,715.7912L297.04742,731.7559C297.18787,732.4958,296.99194,733.2598,296.5125,733.8409L296.5125,733.8409L285.0901,747.6863L285.62982,745.6277L293.03357,787.06616C293.1078,787.4818,293.0771,787.9094,292.94434,788.31006L292.94434,788.31006L286.15863,808.75525L286.17712,807.2157L294.17676,833.36475L290.09937,832.18604L305.02106,819.3336C305.8697,818.60266,307.09735,818.51575,308.04047,819.1189C308.984,819.7223,309.41943,820.8734,309.11194,821.9501L309.11194,821.9501L300.0926,853.5222L300.0996,852.155L309.36322,885.89105L306.08752,884.16815L320.2603,879.24176C321.51727,878.8046,322.8977,879.41425,323.4217,880.63715L323.4217,880.63715L333.88516,905.0546L331.73383,903.5246L344.48788,904.4222C345.22025,904.4737,345.894,904.8404,346.33517,905.42706L346.33517,905.42706L360.1162,923.7465L357.68964,922.76764L370.25934,920.75287C370.73376,920.6767,371.2198,920.7371,371.6609,920.9268L371.6609,920.9268L392.6952,929.9649L389.3615,931.3039L400.60574,904.7945C400.95767,903.96466,401.7241,903.384,402.618,903.2702C403.51212,903.15594,404.39975,903.5256,404.94858,904.2404L404.94858,904.2404L414.69067,916.9246L414.11432,916.37836L437.71115,932.5595L433.7547,934.8842L431.52832,910.9262C431.45294,910.1154,431.7719,909.3178,432.38513,908.78253C432.99884,908.24725,433.8322,908.039,434.6253,908.2232L434.6253,908.2232L450.9808,912.0235C451.44583,912.1314,451.87106,912.3687,452.20706,912.70807L452.20706,912.70807L460.40903,920.9841L459.282,920.32477L483.4188,926.97406L480.30484,928.7359L487.93436,901.4088C488.22983,900.3507,489.17245,899.60376,490.2692,899.558L490.2692,899.558L514.6413,898.5398L512.2314,901.3784L509.16992,876.25256C509.01245,874.9602,509.85968,873.7589,511.12964,873.4734L511.12964,873.4734L534.7665,868.16125L532.7895,870.5521L533.3907,851.9398L534.2685,853.9407L422.36847,757.4351C421.4743,756.664,421.23096,755.37726,421.7827,754.3326L421.7827,754.3326L471.82388,659.5638C472.0925,659.0555,472.52567,658.6535,473.0524,658.42413L473.0524,658.42413L516.7884,639.36383L515.9521,639.9537L557.5409,595.5905C558.027,595.07184,558.7084,594.7811,559.41956,594.78955L559.41956,594.78955L618.63104,595.4895C618.74255,595.4907,618.8541,595.4995,618.9645,595.51526L618.9645,595.51526L712.3867,609.05457 Z"/>
</g>
<g style="fill:rgb(49,148,194); fill-opacity:1.0; stroke-linejoin: miter">
<path d="M640.7593,588.0796L640.7593,588.0796L640.7593,588.0796C640.6054,588.8623,640.09186,589.5266,639.3732,589.8729L639.3732,589.8729L618.0877,600.1348C616.8271,600.74286,615.3124,600.2133,614.70435,598.9527C614.0968,597.69183,614.6258,596.1771,615.88666,595.5696L615.88666,595.5696L637.1722,585.3075L635.7864,587.1006L635.7864,587.10046C636.0568,585.7273,637.38916,584.8334,638.7622,585.1035C640.1353,585.3739,641.0297,586.7063,640.7593,588.0796 Z"/>
</g>
<g style="fill:rgb(49,148,194); fill-opacity:1.0; stroke-linejoin: miter">
<path d="M561.77997,598.51764L561.77997,598.51764L561.77997,598.5179C561.113,599.37506,559.9739,599.71173,558.94794,599.3555C557.9223,598.9991,557.23755,598.0289,557.2455,596.94293L557.2455,596.94293L557.37665,579.20416C557.3871,577.8044,558.52997,576.6781,559.9295,576.68835C561.32904,576.69885,562.45514,577.8419,562.4451,579.24146L562.4451,579.24146L562.314,596.98035L557.7797,595.40546L557.7797,595.40533C558.639,594.3004,560.2315,594.1018,561.336,594.9612C562.4405,595.8209,562.6393,597.413,561.77997,598.51764 Z"/>
</g>
<g style="fill:rgb(49,148,194); fill-opacity:1.0; stroke-linejoin: miter">
<path d="M534.5115,549.40326L534.5115,549.40326L534.5112,549.4035L535.1625,548.05646L520.8967,641.9639C520.68665,643.34784,519.3946,644.299,518.0108,644.0888C516.6268,643.8787,515.67554,642.5866,515.8856,641.2027L515.8856,641.2027L530.15155,547.2952C530.22833,546.79083,530.4553,546.3212,530.80304,545.9482L530.80304,545.9482L530.80304,545.9478C531.75757,544.9239,533.36127,544.8674,534.3851,545.8215C535.40875,546.7758,535.4655,548.37946,534.5115,549.40326 Z"/>
</g>
<g style="fill:rgb(49,148,194); fill-opacity:1.0; stroke-linejoin: miter">
<path d="M518.70966,641.8731L518.70966,641.8731L518.70966,641.8732C518.33813,642.9456,517.29895,643.64044,516.166,643.5739C515.0331,643.5074,514.0825,642.6954,513.8392,641.587L513.8392,641.587L491.95633,541.8208C491.65677,540.4536,492.52176,539.1022,493.8892,538.8025C495.2559,538.50244,496.6073,539.3678,496.90735,540.73486L496.90735,540.73486L518.79,640.50104L513.92,640.21466L513.92,640.21454C514.378,638.892,515.82166,638.19086,517.144,638.64923C518.46655,639.1071,519.16766,640.5505,518.70966,641.8731 Z"/>
</g>
<g style="fill:rgb(49,148,194); fill-opacity:1.0; stroke-linejoin: miter">
<path d="M495.37674,542.4551L495.37674,542.4551L495.37674,542.4551C495.37222,542.4866,495.36765,542.51794,495.3622,542.5493L495.3622,542.5493L475.09586,660.4063C474.85843,661.7858,473.54794,662.71173,472.1685,662.4744C470.78946,662.23724,469.8635,660.9267,470.10068,659.5473L470.10068,659.5473L490.36697,541.6902L490.35287,541.7842L490.35287,541.78406C490.5377,540.3967,491.8127,539.42236,493.2001,539.60754C494.58755,539.7927,495.5618,541.06775,495.37674,542.4551 Z"/>
</g>
<g style="fill:rgb(49,148,194); fill-opacity:1.0; stroke-linejoin: miter">
<path d="M461.19034,552.55225L461.19034,552.55225L461.19034,552.55225L461.19193,552.5654L474.91147,659.3829C475.08975,660.77106,474.10886,662.0411,472.7205,662.21906C471.33218,662.39764,470.06216,661.41656,469.8842,660.02826L469.8842,660.02826L456.16486,553.2113L456.16644,553.22437L456.16644,553.22424C455.98096,551.8369,456.95502,550.5619,458.34213,550.37634C459.72934,550.1908,461.00455,551.1648,461.19034,552.55225 Z"/>
</g>
<g style="fill:rgb(49,148,194); fill-opacity:1.0; stroke-linejoin: miter">
<path d="M433.75818,572.4037L433.75818,572.4037L433.75818,572.40393L433.59882,571.96436L475.68362,661.2697C476.28024,662.53595,475.73782,664.04584,474.4717,664.6425C473.2054,665.2392,471.69547,664.6965,471.09885,663.43036L471.09885,663.43036L429.0138,574.1249C428.94708,573.9835,428.89386,573.8364,428.85443,573.6853L428.85443,573.6853L428.85443,573.68506C428.5005,572.33093,429.3111,570.9463,430.66553,570.5925C432.0197,570.23865,433.40424,571.0497,433.75818,572.4037 Z"/>
</g>
<g style="fill:rgb(49,148,194); fill-opacity:1.0; stroke-linejoin: miter">
<path d="M431.722,576.50635L431.722,576.50635L431.722,576.50684L431.84857,575.7843L426.75952,754.9864C426.72015,756.38544,425.55377,757.4875,424.15472,757.4478C422.75543,757.408,421.6537,756.2415,421.6933,754.8426L421.6933,754.8426L426.78204,575.6406C426.78888,575.395,426.83167,575.15186,426.90863,574.91846L426.90863,574.91846L426.90887,574.91797C427.34747,573.589,428.78046,572.86707,430.10962,573.30566C431.43884,573.74426,432.16064,575.17725,431.722,576.50635 Z"/>
</g>
<g style="fill:rgb(49,148,194); fill-opacity:1.0; stroke-linejoin: miter">
<path d="M425.59973,753.92194L425.59973,753.92194L515.9289,876.2219C516.76044,877.34753,516.5221,878.93445,515.39624,879.7661C514.2703,880.59753,512.6835,880.3589,511.85217,879.23315L511.85217,879.23315L421.52258,756.93317C420.6908,755.8073,420.92957,754.2205,422.05573,753.38885C423.18158,752.5573,424.7682,752.7961,425.59973,753.92194 Z"/>
</g>
<g style="fill:rgb(49,148,194); fill-opacity:1.0; stroke-linejoin: miter">
<path d="M425.36304,754.50604L425.36304,754.50604L425.36322,754.50616C425.50092,754.67523,425.61633,754.8614,425.70673,755.0599L425.70673,755.0599L492.02768,901.0768C492.60654,902.3512,492.0427,903.85364,490.7684,904.4325C489.49387,905.01135,487.99173,904.4475,487.41257,903.1732L487.41257,903.1732L421.09186,757.15607L421.43536,757.7094L421.43518,757.7094C420.5506,756.6247,420.71265,755.02826,421.79755,754.1436C422.88202,753.2591,424.47864,753.4212,425.36304,754.50604 Z"/>
</g>
<g style="fill:rgb(49,148,194); fill-opacity:1.0; stroke-linejoin: miter">
<path d="M426.34137,753.8953L426.34137,753.8953L426.34155,753.8957C426.40192,754.0411,426.4488,754.1921,426.48114,754.34625L426.48114,754.34625L461.46414,920.3404C461.75278,921.7099,460.87656,923.05426,459.50717,923.34283C458.13724,923.63153,456.7933,922.75507,456.50443,921.38556L456.50443,921.38556L421.52167,755.3914L421.66168,755.8422L421.66144,755.842C421.12402,754.5495,421.7359,753.06635,423.02814,752.5285C424.32043,751.9913,425.8039,752.6031,426.34137,753.8953 Z"/>
</g>
<g style="fill:rgb(49,148,194); fill-opacity:1.0; stroke-linejoin: miter">
<path d="M425.96918,753.73785L425.96918,753.73785L425.96918,753.738C426.1524,754.0666,426.26013,754.43195,426.28424,754.8073L426.28424,754.8073L436.79062,916.98224C436.88095,918.3791,435.822,919.58466,434.42523,919.675C433.0285,919.76544,431.82294,918.7067,431.73254,917.3099L431.73254,917.3099L421.22644,755.1351L421.54144,756.20416L421.54126,756.20404C420.86017,754.9815,421.2995,753.4379,422.5219,752.757C423.74493,752.07574,425.28833,752.51495,425.96918,753.73785 Z"/>
</g>
<g style="fill:rgb(49,148,194); fill-opacity:1.0; stroke-linejoin: miter">
<path d="M427.25482,757.8807L427.25482,757.8807L427.25482,757.8809C427.25922,758.03986,427.24872,758.19855,427.2232,758.3553L427.2232,758.3553L403.65097,904.48004C403.42813,905.8619,402.12747,906.80145,400.7455,906.5783C399.36374,906.3555,398.42404,905.05475,398.64713,903.67303L398.64713,903.67303L422.21936,757.5479L422.18817,758.02216L422.18817,758.02216C422.14923,756.62286,423.25146,755.4571,424.65076,755.41815C426.04974,755.3791,427.21545,756.4816,427.25482,757.8807 Z"/>
</g>
<g style="fill:rgb(49,148,194); fill-opacity:1.0; stroke-linejoin: miter">
<path d="M427.60223,756.9338L427.60223,756.9338L427.60223,756.93414C427.58197,757.0389,427.55444,757.1425,427.52075,757.24396L427.52075,757.24396L373.2218,920.65106C372.78015,921.97943,371.34583,922.6983,370.0174,922.2569C368.68933,921.8155,367.97028,920.3809,368.41168,919.0527L368.41168,919.0527L422.71082,755.64545L422.62933,755.955L422.62933,755.9548C422.89978,754.5815,424.23236,753.6873,425.60547,753.9578C426.97852,754.22797,427.87268,755.5605,427.60223,756.9338 Z"/>
</g>
<g style="fill:rgb(49,148,194); fill-opacity:1.0; stroke-linejoin: miter">
<path d="M428.00037,757.5273L428.00037,757.5273L428.00037,757.5275C427.95007,757.78217,427.86084,758.028,427.73608,758.2559L427.73608,758.2559L346.20834,907.0312C345.5355,908.2586,343.99533,908.70856,342.76797,908.03595C341.54056,907.3631,341.09073,905.82306,341.7634,904.5955L341.7634,904.5955L423.29126,755.82025L423.0268,756.5485L423.02704,756.5483C423.29742,755.17474,424.63,754.2807,426.0031,754.5512C427.3764,754.8215,428.27032,756.15375,428.00037,757.5273 Z"/>
</g>
<g style="fill:rgb(49,148,194); fill-opacity:1.0; stroke-linejoin: miter">
<path d="M425.17224,760.4744L425.17224,760.4744L425.172,760.4747C425.0905,760.6281,424.9926,760.7724,424.88153,760.9057L424.88153,760.9057L323.1574,882.6232C322.25964,883.6972,320.66162,883.8403,319.58765,882.9427C318.51367,882.0451,318.37073,880.4471,319.26807,879.37286L319.26807,879.37286L420.9922,757.65546L420.70172,758.0866L420.70148,758.0865C421.36096,756.85175,422.8966,756.38556,424.1308,757.0452C425.36548,757.70465,425.83167,759.2399,425.17224,760.4744 Z"/>
</g>
<g style="fill:rgb(49,148,194); fill-opacity:1.0; stroke-linejoin: miter">
<path d="M423.37573,758.3394L423.37573,758.3394L423.37573,758.33966C423.20502,758.6589,422.96802,758.9379,422.6808,759.1578L422.6808,759.1578L298.97467,853.85046C297.86334,854.7012,296.2724,854.48987,295.42194,853.3784C294.57104,852.2672,294.78253,850.6764,295.8941,849.8257L295.8941,849.8257L419.59998,755.133L418.9052,755.9516L418.9052,755.95123C419.5647,754.7166,421.10004,754.2504,422.33478,754.9097C423.56903,755.5694,424.03522,757.1047,423.37573,758.3394 Z"/>
</g>
<g style="fill:rgb(49,148,194); fill-opacity:1.0; stroke-linejoin: miter">
<path d="M432.847,574.53174L432.847,574.53174L432.84674,574.5321C432.83698,574.553,432.82697,574.57385,432.8167,574.5946L432.8167,574.5946L307.60797,825.9231C306.984,827.1758,305.46222,827.6852,304.20953,827.06116C302.9569,826.437,302.44696,824.91565,303.07135,823.6627L303.07135,823.6627L428.27966,572.33435L428.24963,572.3971L428.24988,572.3967C428.83923,571.1273,430.34637,570.5763,431.6159,571.16565C432.88495,571.7554,433.43634,573.2622,432.847,574.53174 Z"/>
</g>
<g style="fill:rgb(49,148,194); fill-opacity:1.0; stroke-linejoin: miter">
<path d="M297.31317,734.19183L297.31317,734.19183L297.31293,734.1922L294.49133,730.64496L354.57462,717.96466C355.94406,717.6756,357.28848,718.55145,357.57773,719.9207C357.86667,721.29034,356.9907,722.6347,355.62125,722.924L355.62125,722.924L295.53802,735.60455C294.59882,735.80255,293.6286,735.45355,293.03156,734.70245C292.43396,733.9515,292.31195,732.92755,292.716,732.05707L292.716,732.05707L292.71625,732.0568C293.3058,730.7873,294.81274,730.2365,296.08228,730.82574C297.35156,731.4156,297.90295,732.9224,297.31317,734.19183 Z"/>
</g>
<g style="fill:rgb(49,148,194); fill-opacity:1.0; stroke-linejoin: miter">
<path d="M339.78653,759.76556L339.78653,759.76556L339.7863,759.7658C339.58505,760.1994,339.26523,760.5671,338.86392,760.8266L338.86392,760.8266L292.28333,790.9464C291.10828,791.70654,289.53918,791.37,288.7791,790.19446C288.01904,789.01904,288.3559,787.4502,289.5312,786.6903L289.5312,786.6903L336.1116,756.57025L335.18918,757.63104L335.18942,757.63043C335.77878,756.36127,337.28616,755.8101,338.5557,756.3997C339.8248,756.9892,340.3759,758.49615,339.78653,759.76556 Z"/>
</g>
<g style="fill:rgb(49,148,194); fill-opacity:1.0; stroke-linejoin: miter">
<path d="M358.5186,721.27496L358.5186,721.27496L358.5186,721.2751C358.01297,721.72943,357.34647,721.96185,356.66794,721.91986L356.66794,721.91986L291.84662,717.91583C290.44983,717.8295,289.38727,716.62714,289.47357,715.23004C289.5598,713.8332,290.76215,712.77045,292.15942,712.8566L292.15942,712.8566L356.98044,716.86115L355.1298,717.50604L355.13004,717.5059C356.17075,716.5701,357.77335,716.6552,358.7089,717.696C359.64468,718.7369,359.55954,720.3392,358.5186,721.27496 Z"/>
</g>
<g style="fill:rgb(49,148,194); fill-opacity:1.0; stroke-linejoin: miter">
<path d="M356.2855,719.4074L356.2855,719.4074L356.2855,719.40753C355.6877,719.9449,354.8705,720.1668,354.08316,720.00555L354.08316,720.00555L274.31836,703.69366C272.9469,703.41327,272.06274,702.07416,272.34296,700.70294C272.62366,699.3317,273.96234,698.4476,275.33362,698.72784L275.33362,698.72784L355.0986,715.04L352.8967,715.63824L352.89688,715.638C353.9374,714.70233,355.53995,714.78754,356.4758,715.8284C357.4116,716.8692,357.32645,718.47174,356.2855,719.4074 Z"/>
</g>
<g style="fill:rgb(49,148,194); fill-opacity:1.0; stroke-linejoin: miter">
<path d="M398.2911,641.5315L398.2911,641.5315L398.29092,641.53174C397.9556,641.62317,397.605,641.64465,397.26108,641.595L397.26108,641.595L200.44604,613.14844C199.06065,612.9481,198.10002,611.6627,198.30034,610.2776C198.50066,608.89233,199.78592,607.93176,201.17131,608.1321L201.17131,608.1321L397.9861,636.5784L396.9565,636.6418L396.95676,636.64154C398.30728,636.2734,399.7004,637.06915,400.069,638.4195C400.4373,639.7697,399.64145,641.1631,398.2911,641.5315 Z"/>
</g>
<g style="fill:rgb(49,148,194); fill-opacity:1.0; stroke-linejoin: miter">
<path d="M105.631035,636.51953L105.631035,636.51953L195.62997,607.98083L197.16217,612.8125L107.163246,641.3508L105.631035,636.51953 M107.163246,641.3508C105.82908,641.7739,104.40455,641.03546,103.98138,639.7013C103.55843,638.36707,104.29688,636.94275,105.631035,636.51953L105.631035,636.51953L195.62997,607.98083C196.96413,607.55774,198.38889,608.2964,198.81161,609.6305C199.23479,610.96484,198.49634,612.3893,197.16217,612.8125L197.16217,612.8125L107.163246,641.3508 Z"/>
</g>
<g style="fill:rgb(49,148,194); fill-opacity:1.0; stroke-linejoin: miter">
<path d="M202.07462,683.7432L202.07462,683.7432L202.07416,683.7436C201.30612,684.092,200.41539,684.03546,199.69766,683.5931C198.9797,683.1507,198.52898,682.38043,198.49484,681.538L198.49484,681.538L195.64362,611.00806C195.58717,609.6095,196.67503,608.42993,198.07362,608.37354C199.47198,608.3168,200.65161,609.405,200.70828,610.80347L200.70828,610.80347L203.55925,681.3333L199.97993,679.1276L199.98038,679.1275C201.25514,678.54926,202.75684,679.1136,203.33525,680.38837C203.91345,681.663,203.34914,683.165,202.07462,683.7432 Z"/>
</g>
<g style="fill:rgb(49,148,194); fill-opacity:1.0; stroke-linejoin: miter">
<path d="M230.72272,693.4118L230.72272,693.4118L230.7225,693.4119C230.09445,693.69696,229.37717,693.71356,228.7366,693.4583C228.09583,693.2027,227.58707,692.69696,227.32755,692.0579L227.32755,692.0579L196.39621,615.91394C195.86966,614.61707,196.49384,613.1388,197.79044,612.6122C199.08705,612.08545,200.56555,612.7096,201.09232,614.0062L201.09232,614.0062L232.0234,690.1503L228.62827,688.7963L228.6287,688.7961C229.90323,688.21783,231.4054,688.7824,231.98358,690.05695C232.56201,691.3316,231.9975,692.83344,230.72272,693.4118 Z"/>
</g>
<g style="fill:rgb(49,148,194); fill-opacity:1.0; stroke-linejoin: miter">
<path d="M273.88086,704.1194L273.88086,704.1194L273.88068,704.11926C273.3034,704.00574,272.78345,703.69476,272.41034,703.2397L272.41034,703.2397L197.39687,611.7578C196.50955,610.6753,196.66753,609.0785,197.74971,608.19104C198.8321,607.3036,200.42899,607.4617,201.3163,608.54395L201.3163,608.54395L276.32977,700.02606L274.85974,699.1463L274.85992,699.1464C276.23303,699.4168,277.1272,700.7493,276.85675,702.1225C276.5863,703.4959,275.25397,704.3899,273.88086,704.1194 Z"/>
</g>
<g style="fill:rgb(49,148,194); fill-opacity:1.0; stroke-linejoin: miter">
<path d="M202.21365,608.1107L202.21365,608.1107L202.21365,608.1112L201.24373,606.7678L358.79105,717.4477C359.93674,718.25226,360.21286,719.83307,359.40817,720.9781C358.60373,722.1235,357.02304,722.3997,355.87778,721.59515L355.87778,721.59515L198.32994,610.91504C197.86557,610.5886,197.52388,610.1155,197.36023,609.5719L197.36023,609.5719L197.35999,609.5713C196.95662,608.2311,197.71626,606.8176,199.05658,606.4143C200.39693,606.011,201.8103,606.7704,202.21365,608.1107 Z"/>
</g>
<g style="fill:rgb(49,148,194); fill-opacity:1.0; stroke-linejoin: miter">
<path d="M396.51852,637.7319L396.51852,637.7319L396.5181,637.7319C396.03506,637.67706,395.57797,637.4841,395.2012,637.1766L395.2012,637.1766L123.90605,415.58444C122.82182,414.69916,122.660904,413.1027,123.54637,412.0186C124.43187,410.93472,126.02829,410.77365,127.11229,411.65915L127.11229,411.65915L398.40768,633.25104L397.0908,632.69586L397.09152,632.69586C398.4821,632.8542,399.48117,634.10956,399.32297,635.5003C399.16476,636.89105,397.9094,637.8901,396.51852,637.7319 Z"/>
</g>
<g style="fill:rgb(49,148,194); fill-opacity:1.0; stroke-linejoin: miter">
<path d="M46.269623,396.142L46.269623,396.142L46.269516,396.142L47.67298,391.52252L400.35873,635.07245C401.5106,635.868,401.7994,637.4461,401.00412,638.59796C400.2087,639.7498,398.63052,640.0387,397.47873,639.2431L397.47873,639.2431L44.79284,395.69342C43.88572,395.067,43.487587,393.9261,43.807976,392.87115C44.12848,391.81662,45.09411,391.0898,46.196198,391.07385L46.196198,391.07385L46.196312,391.074C47.59581,391.05374,48.74674,392.17184,48.766888,393.5714C48.78726,394.97095,47.66912,396.12183,46.269623,396.142 Z"/>
</g>
<g style="fill:rgb(49,148,194); fill-opacity:1.0; stroke-linejoin: miter">
<path d="M13.735055,410.70575L13.735055,410.70575L396.54813,634.45306C397.75644,635.15924,398.16367,636.7116,397.4573,637.9201C396.7512,639.1281,395.1992,639.5352,393.99063,638.8289L393.99063,638.8289L11.17735,415.0817C9.968954,414.3753,9.562052,412.8233,10.268174,411.6149C10.97453,410.4065,12.526769,409.9994,13.735055,410.70575 Z"/>
</g>
<g style="fill:rgb(49,148,194); fill-opacity:1.0; stroke-linejoin: miter">
<path d="M393.73776,637.581L393.73776,637.581L393.73752,637.58075C393.697,637.57306,393.6572,637.564,393.61783,637.55426L393.61783,637.55426L151.10558,577.4705C149.74706,577.1341,148.91869,575.7599,149.2551,574.40125C149.59178,573.0426,150.96579,572.2141,152.32454,572.5508L152.32454,572.5508L394.83633,632.63446L394.71634,632.60785L394.71683,632.60785C396.09036,632.87823,396.98428,634.21075,396.71408,635.5839C396.44345,636.95734,395.1113,637.8514,393.73776,637.581 Z"/>
</g>
<g style="fill:rgb(49,148,194); fill-opacity:1.0; stroke-linejoin: miter">
<path d="M19.344906,438.53662C18.267168,438.32422,17.135141,438.83508,16.605211,439.85974C16.376776,440.3015,16.29096,440.77917,16.330912,441.2406L22.15358,445.5824L37.277996,453.40442L37.277775,453.40533L37.277996,453.40442L373.71475,627.4014L386.4448,633.98505C386.65762,634.09515,386.88504,634.1746,387.11996,634.22076C387.19162,634.2349,387.2645,634.2459,387.33755,634.2537C388.72934,634.4036,389.97903,633.39703,390.12888,632.0057C390.24405,630.93634,389.67654,629.9506,388.7758,629.48346L295.22244,581.10065L340.1147,607.33966L295.22244,581.10065L24.850931,441.271L24.85082,441.27203L24.850931,441.271L20.020412,438.7729C19.801998,438.6598,19.574593,438.58173,19.344906,438.53662 Z"/>
</g>
<g style="fill:rgb(49,148,194); fill-opacity:1.0; stroke-linejoin: miter">
<path d="M60.703003,491.5466L62.831154,494.26505C62.90013,494.35318,62.974915,494.4363,63.05481,494.51456L69.254456,500.577L81.835815,505.79092L81.83558,505.79196L81.835815,505.79092L367.38278,624.1268L313.99045,596.51337L72.09852,496.26907L78.50553,502.53445L78.5053,502.53555L72.09852,496.2692L60.703003,491.5466 Z"/>
</g>
<g style="fill:rgb(49,148,194); fill-opacity:1.0; stroke-linejoin: miter">
<path d="M393.87527,638.58307L393.87527,638.58307L393.87503,638.5828C393.29135,638.32904,392.82425,637.8648,392.56705,637.2824L392.56705,637.2824L362.9576,570.2321C362.3922,568.95197,362.9717,567.4559,364.25192,566.8902C365.53256,566.3249,367.0286,566.9045,367.59427,568.18463L367.59427,568.18463L397.20377,635.23505L395.89554,633.93463L395.89572,633.93463C397.17935,634.4926,397.7678,635.98553,397.20987,637.269C396.65195,638.5528,395.1589,639.14105,393.87527,638.58307 Z"/>
</g>
</g>
</g>
</svg>