<svg xmlns="http://www.w3.org/2000/svg" width="720" height="1424"><path d="M48.402 389.983a2.532 2.532 0 0 0-1.11.029L8.325 399.83a2.535 2.535 0 0 0-1.836 3.085l3.233 12.654.706 20.085a2.534 2.534 0 0 0 1.018 1.942l4.886 3.644a2.535 2.535 0 0 1 3.69-2.467l4.83 2.498v.001l6.764 5.043c.18.135.342.292.48.47l5.183 6.62L313.99 596.512v.001L37.278 453.403l-15.124-7.822-.054-.04 6.213 4.634 32.39 41.37 11.395 4.723-5.379-5.26 11.787 11.526-6.407-6.266v.001l6.407 6.264 3.33 3.257-12.582-5.214 79.839 78.072c.127.125.268.236.419.332l43.081 27.189-47.152-1.708a2.527 2.527 0 0 0-.82.105l-38.281 11.478q1.796 2.098 3.575 4.124l35.473-10.638v.001l-35.473 10.637.067.076q3.688 4.197 7.3 8.085 9.662 14.703 62.19 38.892 9.298 3.458 18.698 6.28l-2.435-60.237 2.435 60.236.086.026v.001q2.478.742 4.96 1.44v.001l.087.023-1.889-46.726 1.889 46.727q9.443 2.651 18.987 4.664l-20.876-51.391 20.876 51.391.028.006.073.015-20.898-51.444 20.898 51.444q1.894.4 3.79.773.98.192 1.962.379l-25.312-62.317 25.314 62.317.099.02-25.334-62.369 25.335 62.368q14.433 2.734 29.099 4.018l-54.434-66.386 54.435 66.386.118.01-54.487-66.45 54.488 66.45q3.394.297 6.801.515l-54.342-66.276v.001l54.344 66.275.065.004-54.372-66.31-.005-.004.033-.036-.032.035 92.239 64.8.064-.011-92.271-64.824 92.273 64.823q3.288-.623 6.531-1.43l-95.947-67.407 95.949 67.406.119-.03-96.027-67.462 96.028 67.462q9.402-2.352 18.432-6.257l12.29-6.132q12.114-6.872 23.52-16.705l11.23-10.573q1.127-.652 3.048-4.012h-.004q.028-.043.053-.087h-.003l-164.568-23.785h-.003a.097.097 0 0 0-.058.003.087.087 0 0 1 .053-.005l164.577 23.787q1.784-3.133 4.241-8.572l-4.103-1.701 4.104 1.7.276-.615-4.38-1.085 4.38 1.085.307-.687-14.273-9.858v.001l14.274 9.856.27-.613q.176-.499.343-1.006l-2.303-1.883 2.303 1.881.18-.552-.663-.388.662.387.012-.037-.674-.35.674.35q.702-2.21 1.26-4.572L141.796 423.844l242.577 198.136q.02-.08.038-.161L141.89 423.73l242.52 198.088q.232-.99.438-2.008l-21.07-47.72 21.071 47.716.05-.25-20.874-47.276 20.875 47.271q.843-4.238 1.253-8.94l-16.457-37.274 16.458 37.268.027-.323-16.34-37.01 16.34 37.005q.96-11.476-.64-25.699-.795-5.827-1.673-11.482h-.003q-.01-.079-.022-.157h-.003l-13.988.175h-.003l13.991-.176q-.38-2.467-.78-4.9l-15.445.193-.02-.046a2.532 2.532 0 0 0-2.529-1.503l-90.23-69.576a2.462 2.462 0 0 0-.249-.17l-145.254-86.594a2.541 2.541 0 0 0-.683-.281l-80.123-20.05a2.57 2.57 0 0 0-.125-.028zm74.585 23.885v.001zm227.333 186.65.118.096a.19.19 0 0 1-.062.043.153.153 0 0 0 .059-.044l-.115-.095zm27.832 33.194-.105-.015.106.026a.111.111 0 0 1-.121.08.106.106 0 0 0 .118-.08l-.103-.026.102.014zm-173.765-25.115h-.001l-.109-.016.11.016zM426.013 754.987c.002.085 0 .17-.006.255l-11.89 163.29a2.534 2.534 0 1 1-5.056-.368l11.891-163.29-.006.254a2.534 2.534 0 1 1 5.067-.141z" style="fill:#48c2fa;fill-opacity:1;stroke-linejoin:miter"/><path d="m313.99 596.513 53.393 27.614 21.109 8.748a2.52 2.52 0 0 0 1.152.186 2.535 2.535 0 0 0 .77-4.877l-76.424-31.67zM426.514 587.046a.337.337 0 0 0-.367.18L401.1 637.504a.335.335 0 0 0-.036.145h-.002a2.193 2.193 0 0 1-.516.987.338.338 0 0 0-.073.133h-.003l-92.298 185.268-.023.058-5.853 20.49c-.04.14.013.29.134.371h-.003c.033.023.072.04.113.05l.014.003a.336.336 0 0 0 .27-.064l116.873-89.461h.003l.015-.012c.362-.309.816-.49 1.286-.52h.003a.337.337 0 0 0 .311-.277c.08-.454.3-.862.615-1.175h-.003a.336.336 0 0 0 .149-.271l4.71-165.843a.336.336 0 0 0-.256-.336l-.016-.004zM431.78 579.652a.246.246 0 0 0-.293.234l-4.67 164.441a.246.246 0 0 0 .183.245l.015.004a.246.246 0 0 0 .265-.127l43.415-82.221a.245.245 0 0 0 .005-.22l-38.745-82.22a.247.247 0 0 0-.176-.136zM456.52 555.65a.13.13 0 0 0-.107.027L434.27 573.46a.13.13 0 0 0-.02.181h-.005l33.568 71.231a.128.128 0 0 0 .154.07.13.13 0 0 0 .092-.142l-11.436-89.039a.13.13 0 0 0-.103-.11zM490.311 542.035a.129.129 0 0 0-.07.005l-29.064 10.634a.13.13 0 0 0-.076.168h-.004l11.641 90.637a.13.13 0 0 0 .256.005l17.42-101.3a.13.13 0 0 0-.103-.149zM493.961 550.717a.13.13 0 0 0-.153.105L475.502 657.28a.13.13 0 0 0 .103.149h.001a.131.131 0 0 0 .077-.01h-.002l38.022-16.569a.13.13 0 0 0 .075-.093v-.054l-19.716-89.886a.129.129 0 0 0-.1-.1zM496.95 540.691a.127.127 0 0 0-.149.152l20.212 92.15a.127.127 0 0 0 .25-.01l12.75-83.937a.127.127 0 0 0-.094-.143l-32.963-8.21-.007-.002zM534.4 553.11a.128.128 0 0 0-.15.106l-12.158 80.036c-.01.067.034.13.1.144h.004a.126.126 0 0 0 .115-.038l35.034-37.373.033-.062v-.001l.002-.024.124-16.693c.001-.236.037-.465.102-.679h.004c.02-.045.01-.099-.023-.136l-23.118-25.24a.127.127 0 0 0-.069-.04zM629.764 588.781h-.007l-67.29-8.696a.086.086 0 0 0-.017-.003.11.11 0 0 0-.12.088v.005a.106.106 0 0 0 .003.049l-.005-.001-.108 14.601a.11.11 0 0 0 .088.109l.01.001h.015-.005l53.785.636a.112.112 0 0 0 .05-.011h-.001l13.629-6.57a.11.11 0 0 0 .06-.117.109.109 0 0 0-.087-.09zM638.534 590.199l-.074.005-12.844 6.193a.098.098 0 0 0 .003.179l-.005-.001a.105.105 0 0 0 .04.01l-.005-.001 57.43 8.324c.05.007.1-.028.11-.079a.098.098 0 0 0-.066-.113l-44.59-14.517zM414.55 765.208a.209.209 0 0 0-.169.04l-114.22 87.43a.209.209 0 0 0-.074.222l8.357 30.435a.21.21 0 0 0 .272.142h-.001l10.41-3.618h.002a.21.21 0 0 0 .11-.088c.058-.091.12-.179.192-.264l95.24-113.96a.21.21 0 0 0-.12-.34zM412.209 775.912a.21.21 0 0 0-.201.071l-88.274 105.624a.208.208 0 0 0-.032.216l9.381 21.894a.209.209 0 0 0 .194.127h-.003l8.667.61a.21.21 0 0 0 .199-.109l70.212-128.127a.21.21 0 0 0-.143-.306zM412.806 785.37a.21.21 0 0 0-.224.104l-65.995 120.431a.211.211 0 0 0 .04.253h-.004l12.407 16.495a.208.208 0 0 0 .203.08h-.002l9.369-1.501a.21.21 0 0 0 .156-.305 2.316 2.316 0 0 1-.146-1.808l44.354-133.478a.21.21 0 0 0-.158-.271zM417.354 787.757a.21.21 0 0 0-.24.14l-44.091 132.688c-.088.263-.217.5-.38.706a.21.21 0 0 0 .106.33h-.003l17.527 7.532a.207.207 0 0 0 .18-.007.208.208 0 0 0 .096-.104l9.604-22.643.003.001a.21.21 0 0 0-.094-.268 2.325 2.325 0 0 1-1.208-2.426l18.666-115.71a.21.21 0 0 0-.166-.239zM423.522 789.73a.21.21 0 0 0-.25.19l-9.207 126.446a.21.21 0 0 0 .042.143l.173.224.048.045 18.808 12.899a.208.208 0 0 0 .324-.132v-.001l.003-.06-.999-10.751-.004-.001a.21.21 0 0 0-.04-.167 2.31 2.31 0 0 1-.478-1.269l-8.252-127.374a.21.21 0 0 0-.168-.192zM428.493 788.074a.21.21 0 0 0-.25.219l7.795 120.322a.21.21 0 0 0 .169.192c.003 0 .007 0 .01.002h.004l14.712 3.418c.427.1.817.317 1.125.629l3.136 3.163a.208.208 0 0 0 .248.037.21.21 0 0 0 .105-.227l-26.89-127.593a.209.209 0 0 0-.164-.162zM432.292 781.52a.21.21 0 0 0-.245.249l29.212 138.615c.04.185.055.37.05.552a.211.211 0 0 0 .172.212l.005.001 19.442 5.357.015.004a.21.21 0 0 0 .243-.15l6.445-23.085h.004a.209.209 0 0 0-.012-.147l-.02-.041-55.16-121.448a.21.21 0 0 0-.151-.119zM434.64 774.432a.21.21 0 0 0-.231.292l56.718 124.877a.209.209 0 0 0 .2.122l20.581-.858a.21.21 0 0 0 .197-.17l.003-.066-2.73-22.402a2.318 2.318 0 0 1-.005-.528l-.004-.001a.21.21 0 0 0-.023-.21l-74.579-100.975a.208.208 0 0 0-.128-.08zM438.458 771.07a.21.21 0 0 0-.209.33l75.087 101.665a.21.21 0 0 0 .217.08l-.002-.001 19.347-4.347a.21.21 0 0 0 .16-.164v-.001l.004-.034.499-15.44a.21.21 0 0 0-.073-.167l-94.934-81.874a.21.21 0 0 0-.096-.046zM415.358 832.086l-.057-.007-11.506 71.327.03.032h-.008c.432.161.819.442 1.11.82l4.682 6.098.05-.012v-.004l5.7-78.254zM332.26 765.022a.087.087 0 0 0-.066.012l-39.959 25.838-.002.002a2.668 2.668 0 0 1-.256.145.088.088 0 0 0-.049.08h-.002l-5.597 16.861v.054l6.627 21.665a.09.09 0 0 0 .09.062c.02 0 .039-.009.054-.022h-.001l11.98-10.319a2.4 2.4 0 0 1 .304-.222h-.003l-.02.007.064-.047 26.897-53.99a.089.089 0 0 0-.062-.126zM352.997 723.395a.096.096 0 0 0-.035 0l-57.442 12.123c-.17.036-.34.053-.509.054a.089.089 0 0 0-.081.054h-.004l-9.158 11.1a.089.089 0 0 0-.015.086h-.001l6.772 37.903a.089.089 0 0 0 .136.059h-.001l43.403-28.066-.005.002.012-.005c.177-.125.367-.226.57-.3h-.005l.066-.047 16.36-32.837a.088.088 0 0 0-.01-.094.088.088 0 0 0-.053-.032zM394.028 641.033h-.005l-181.111-26.176-.008-.002a.094.094 0 0 0-.11.073v.001a.095.095 0 0 0 .052.103h-.001l142.673 100.231.058.015-.037-.005c.315.132.606.333.852.603l.071.026-.052-.013.25.176a.09.09 0 0 0 .035.015.093.093 0 0 0 .102-.05l37.296-74.863a.094.094 0 0 0-.065-.134zM209.988 619.046l-.065.07 65.292 79.628.083-.02-.053.036.058.011h.002l.02.004h.001l67.7 13.846.056-.038-.019-.05-133.075-93.487zM277.147 704.223l-.057.058 1.676 7.629.093-.001-.053.037 11.466 1.629.017-.001h.002l.023-.012a2.48 2.48 0 0 1 1.842-.657l38.638 2.388.05-.039v-.001l-.038-.057-53.66-10.973zM294.456 718.038l-.03.03h.026l.004-.03zm-.03.03h-.02l.008.01.012-.01zm-.012.01-.007.008h.013l-.006-.007zm-.007.008zm.042.035.002.004h-.006l.004-.004zm46.105 2.755-46.097-2.846h-.002l.001.002v.006l.003-.004.003.005-.003.029h-.007l-.002.018h-.03l.025.032v.007l-.038-.038 2.292 12.092h.094l-.036.037 43.804-9.244-.007-.096zM202.926 618.397a.086.086 0 0 0-.096.116l29.114 71.67h.001a2.45 2.45 0 0 1-.469 2.583.086.086 0 0 0 .016.129h-.002l7.63 7.8c.013.013.029.021.045.025l.02.001 16.57 1.492.086-.064-.072.064 14.923-.988.079-.07-.018-.07-67.777-82.658a.085.085 0 0 0-.05-.03zM201.43 628.182a.085.085 0 0 0-.102.087l2.146 53.069h.001a2.46 2.46 0 0 1-.644 1.756.085.085 0 0 0-.003.112h-.002l4.158 8.316a.085.085 0 0 0 .088.047h.002v-.001l19.6-1.044.079-.07-.005-.049-25.255-62.17a.085.085 0 0 0-.062-.053zM195.752 613.181a.087.087 0 0 0-.043.002l-87.34 27.697h-.001a.085.085 0 0 0-.069.068.082.082 0 0 0 .004.047l1.833 7.734a.086.086 0 0 0 .066.064l.007.001 18.778 4.99a2.5 2.5 0 0 1 .266.088l23.288 9.148.03.013 23.187 9.462.004.001 22.652 7.803a.085.085 0 0 0 .07-.007.085.085 0 0 0 .041-.057l.002-.02-2.707-66.954a.085.085 0 0 0-.068-.08zM160.198 579.614a.105.105 0 0 0-.118.063.105.105 0 0 0 .041.13l43.068 27.182c.592.373.978.97 1.095 1.628a.106.106 0 0 0 .103.087h-.001l173.646 25.099a.106.106 0 0 0 .119-.085v-.001a.106.106 0 0 0-.079-.123l-217.869-53.979-.005-.001zM186.109 610.915a.113.113 0 0 0-.015-.002l-40.402-1.462a.095.095 0 0 0-.043.002l-58.61 17.575a.092.092 0 0 0-.075.074.091.091 0 0 0 .006.057l2.792 8.361a.092.092 0 0 0 .094.063c.004 0 .008 0 .012-.002l14.858-.883a2.443 2.443 0 0 1 2.345 1.38.093.093 0 0 0 .122.043l78.926-25.027a.092.092 0 0 0-.01-.179zM55.649 396.864a.15.15 0 0 0-.114.27l294.7 203.508a.15.15 0 0 0 .141.016c.047-.02.08-.061.09-.11v-.002a.149.149 0 0 0-.052-.144L124.001 415.469a2.379 2.379 0 0 1-.865-1.605.15.15 0 0 0-.113-.14l-67.367-16.858a.155.155 0 0 0-.007-.002zM141.919 423.582a.15.15 0 0 0-.124.263L386.392 623.63c.02.016.042.026.066.03a.149.149 0 0 0 .175-.118l-.01-.09-22.709-51.425-.045-.058-91.898-70.862h-.002a.145.145 0 0 0-.03-.025l-129.973-77.482a.153.153 0 0 0-.047-.019zM426.952 574.717l-.017-.003-22.265-2.035h-.003a.163.163 0 0 0-.031-.004l-34.784.44H369.823a.158.158 0 0 0-.138.127.16.16 0 0 0 .011.095l25.313 57.32.044.06 2.916 2.382a.158.158 0 0 0 .242-.053l28.747-57.702h.003a.149.149 0 0 0 .015-.044c.02-.112.047-.223.083-.332l.001-.004.013-.037.006-.023a.159.159 0 0 0-.124-.187z" style="fill:#48c2fa;fill-opacity:1;stroke-linejoin:miter"/><path d="m145.814 609.455-.122-.004.122.004zm-.122-.004a.098.098 0 0 0-.037 0v.002a.086.086 0 0 1 .037-.002zM209.96 619.085l54.373 66.31q5.141.329 10.31.48 13.884.53 27.06-1.901l.49-.092-92.233-64.797zM186.18 610.978l-.089.028.087-.028zM152.325 572.55l221.39 54.851v.001l-221.39-54.851zM72.098 496.269l6.407 6.267-6.406-6.267h-.001zM60.703 491.547l2.128 2.718-2.128-2.718zM123.062 413.887l.08.02c.044.37.175.73.389 1.048v.001a2.39 2.39 0 0 1-.39-1.05l-.079-.019zM122.4 413.568l.576.144-.575-.144zM55.476 396.974l-.001.001z" style="fill:#48c2fa;fill-opacity:1;stroke-linejoin:miter"/><g><path d="m711.66 614.07-93.422-13.538.333.026-59.211-.7 1.878-.801-41.588 44.363c-.236.252-.52.453-.837.59l-43.735 19.06 1.228-1.14-50.041 94.77-.586-3.103 111.9 96.506c.58.5.902 1.235.878 2l-.602 18.613a2.534 2.534 0 0 1-1.977 2.39l-23.637 5.313 1.96-2.78 3.062 25.126a2.533 2.533 0 0 1-2.41 2.839l-24.372 1.018 2.335-1.85-7.63 27.327a2.535 2.535 0 0 1-3.113 1.762l-24.137-6.65a2.537 2.537 0 0 1-1.127-.66l-8.202-8.275 1.227.685-16.356-3.8 3.097-2.704 2.226 23.958a2.533 2.533 0 0 1-3.956 2.325l-23.597-16.181a2.542 2.542 0 0 1-.577-.547l-9.742-12.684 4.343-.554-11.244 26.51a2.535 2.535 0 0 1-3.334 1.338l-21.034-9.038 1.402.174-12.57 2.014a2.535 2.535 0 0 1-2.427-.979l-13.78-18.32 1.847 1.005-12.754-.897a2.534 2.534 0 0 1-2.152-1.53l-10.463-24.418 3.161 1.396-14.172 4.927a2.535 2.535 0 0 1-3.276-1.723l-9.264-33.736c-.123-.448-.12-.92.007-1.367l9.02-31.572 4.09 2.616-14.922 12.853a2.534 2.534 0 0 1-4.077-1.18l-8-26.149a2.532 2.532 0 0 1 .018-1.54l6.786-20.445-.09 1.245-7.404-41.439a2.536 2.536 0 0 1 .54-2.058l11.423-13.846-.535 2.085-3.027-15.965 2.134 2.037-14.816-2.102a2.534 2.534 0 0 1-2.12-1.966l-2.355-10.725 2.642 1.984-18.625 1.235a2.537 2.537 0 0 1-.395-.005l-17.71-1.594a2.533 2.533 0 0 1-1.583-.752l-9.954-10.174 1.947.758-22.534 1.202a2.534 2.534 0 0 1-2.402-1.397l-5.292-10.583 1.442 1.262-25.345-8.73a2.48 2.48 0 0 1-.133-.05l-23.254-9.489.031.013-23.288-9.149.276.09-20.255-5.383a2.534 2.534 0 0 1-1.815-1.864l-3.232-13.633 2.616 1.945-16.809 1a2.534 2.534 0 0 1-2.554-1.727l-4.24-12.692a2.534 2.534 0 0 1 1.677-3.23l61.526-18.45c.266-.08.543-.115.82-.105l56.544 2.049-1.444 4.675-51.03-32.204a2.511 2.511 0 0 1-.418-.332l-86.038-84.134a2.546 2.546 0 0 1-.224-.25l-34.727-44.356.48.47-17.14-12.783a2.534 2.534 0 0 1-1.017-1.942l-.716-20.358.078.538-3.301-12.92a2.534 2.534 0 0 1 1.836-3.084l38.969-9.818c.405-.102.83-.102 1.234-.001l80.123 20.05c.24.06.47.155.683.281l145.254 86.594c.087.051.17.108.25.17l92.945 71.67-1.58-.527 38.503-.485a2.58 2.58 0 0 1 .263.01l26.599 2.433-1.818.548 26.763-21.492c.215-.173.457-.31.717-.404l36.923-13.509a2.534 2.534 0 0 1 1.483-.079l37.039 9.226c.483.12.92.38 1.256.747l27.793 30.346-1.543-.801 77.824 10.057c.156.02.31.055.46.103l74.344 24.204a2.534 2.534 0 0 1-1.148 4.918m.727-5.016-1.148 4.917-74.345-24.203.46.104-77.824-10.058a2.535 2.535 0 0 1-1.544-.801l-27.794-30.346 1.257.747-37.039-9.225 1.484-.08-36.924 13.509.716-.404-26.763 21.492a2.535 2.535 0 0 1-1.818.548l-26.598-2.433.263.01-38.503.486a2.534 2.534 0 0 1-1.58-.528l-92.945-71.67.25.17-145.255-86.594.683.282-80.123-20.05 1.234-.001-38.969 9.818 1.836-3.085 3.301 12.919c.046.176.071.357.078.538l.716 20.359-1.018-1.943 17.14 12.782c.18.135.342.292.48.47l34.727 44.355-.223-.25 86.037 84.135-.42-.33 51.03 32.204a2.534 2.534 0 0 1-1.444 4.676l-56.545-2.048.82-.105L84.55 627.87l1.675-3.23 4.24 12.692-2.555-1.727 16.81-1a2.533 2.533 0 0 1 2.615 1.946l3.233 13.633-1.815-1.865 20.255 5.383c.094.025.186.055.276.09l23.288 9.149.03.012 23.254 9.49-.132-.05 25.346 8.73c.626.216 1.144.67 1.44 1.263l5.293 10.583-2.402-1.397 22.534-1.202a2.533 2.533 0 0 1 1.946.758l9.953 10.175-1.584-.752 17.71 1.594-.395-.004 18.625-1.235a2.534 2.534 0 0 1 2.643 1.985l2.356 10.726-2.119-1.966 14.816 2.103a2.534 2.534 0 0 1 2.133 2.037l3.027 15.965c.14.74-.055 1.504-.535 2.085l-11.422 13.845.54-2.058 7.404 41.438c.074.416.043.843-.09 1.244l-6.785 20.445.018-1.54 8 26.15-4.078-1.179 14.922-12.852a2.534 2.534 0 0 1 4.09 2.616l-9.018 31.572.007-1.367 9.263 33.736-3.275-1.723 14.172-4.926a2.534 2.534 0 0 1 3.162 1.395l10.463 24.418-2.151-1.53 12.754.897a2.534 2.534 0 0 1 1.847 1.005l13.781 18.32-2.426-.98 12.57-2.014c.474-.076.96-.016 1.4.174l21.035 9.038-3.334 1.339 11.245-26.51a2.534 2.534 0 0 1 4.343-.554l9.742 12.685-.577-.547 23.597 16.181-3.956 2.325-2.227-23.958a2.534 2.534 0 0 1 3.097-2.703l16.356 3.8c.465.108.89.346 1.226.685l8.202 8.276-1.127-.66 24.137 6.65-3.114 1.762 7.63-27.327a2.534 2.534 0 0 1 2.334-1.851l24.372-1.018-2.41 2.838-3.061-25.125a2.534 2.534 0 0 1 1.96-2.78l23.636-5.312-1.976 2.391.6-18.612.879 2-111.9-96.505a2.534 2.534 0 0 1-.586-3.102l50.04-94.77c.27-.507.703-.91 1.23-1.139l43.735-19.06-.836.59 41.589-44.363a2.533 2.533 0 0 1 1.879-.801l59.211.7c.112 0 .223.01.334.025l93.422 13.54z" style="fill:#3194c2;fill-opacity:1;stroke-linejoin:miter"/><path d="M640.76 588.08a2.533 2.533 0 0 1-1.387 1.793l-21.285 10.262a2.534 2.534 0 1 1-2.201-4.565l21.285-10.263-1.386 1.794a2.534 2.534 0 0 1 4.973.979zM561.78 598.518a2.535 2.535 0 0 1-4.534-1.575l.13-17.739a2.535 2.535 0 0 1 5.07.037l-.132 17.74-4.534-1.576a2.534 2.534 0 1 1 4 3.113zM534.511 549.403l.652-1.347-14.266 93.908a2.534 2.534 0 1 1-5.011-.761l14.266-93.908a2.535 2.535 0 1 1 4.36 2.108z" style="fill:#3194c2;fill-opacity:1;stroke-linejoin:miter"/><path d="M518.71 641.873a2.535 2.535 0 0 1-4.87-.286l-21.884-99.766a2.534 2.534 0 0 1 4.951-1.086L518.79 640.5l-4.87-.286a2.534 2.534 0 1 1 4.79 1.658z" style="fill:#3194c2;fill-opacity:1;stroke-linejoin:miter"/><path d="M495.377 542.455a3.22 3.22 0 0 1-.015.094l-20.266 117.857a2.534 2.534 0 0 1-4.995-.859l20.266-117.857-.014.094a2.534 2.534 0 1 1 5.024.671z" style="fill:#3194c2;fill-opacity:1;stroke-linejoin:miter"/><path d="m461.19 552.552.002.013 13.72 106.818a2.534 2.534 0 1 1-5.028.645l-13.72-106.817.002.013a2.534 2.534 0 1 1 5.024-.672z" style="fill:#3194c2;fill-opacity:1;stroke-linejoin:miter"/><path d="m433.758 572.404-.16-.44 42.086 89.306a2.534 2.534 0 1 1-4.585 2.16l-42.085-89.305a2.534 2.534 0 1 1 4.744-1.721z" style="fill:#3194c2;fill-opacity:1;stroke-linejoin:miter"/><path d="m431.722 576.506.127-.722-5.09 179.202a2.534 2.534 0 1 1-5.066-.143l5.089-179.202a2.534 2.534 0 1 1 4.94.866z" style="fill:#3194c2;fill-opacity:1;stroke-linejoin:miter"/><path d="m425.6 753.922 90.329 122.3a2.534 2.534 0 1 1-4.077 3.011l-90.33-122.3a2.534 2.534 0 1 1 4.078-3.011z" style="fill:#3194c2;fill-opacity:1;stroke-linejoin:miter"/><path d="M425.363 754.506c.138.17.253.355.344.554l66.32 146.017a2.535 2.535 0 0 1-4.614 2.096l-66.321-146.017.343.553a2.534 2.534 0 1 1 3.928-3.203z" style="fill:#3194c2;fill-opacity:1;stroke-linejoin:miter"/><path d="M426.341 753.895c.06.146.108.297.14.451l34.983 165.994a2.534 2.534 0 1 1-4.96 1.046L421.522 755.39l.14.451a2.535 2.535 0 0 1 4.68-1.947z" style="fill:#3194c2;fill-opacity:1;stroke-linejoin:miter"/><path d="M425.97 753.738c.182.329.29.694.314 1.07l10.507 162.174a2.534 2.534 0 0 1-5.058.328l-10.507-162.175.315 1.07v-.001a2.534 2.534 0 0 1 4.428-2.466z" style="fill:#3194c2;fill-opacity:1;stroke-linejoin:miter"/><path d="M427.255 757.88c.004.16-.006.319-.032.475L403.651 904.48a2.534 2.534 0 1 1-5.004-.807l23.572-146.125-.03.474a2.534 2.534 0 1 1 5.066-.141z" style="fill:#3194c2;fill-opacity:1;stroke-linejoin:miter"/><path d="M427.602 756.934c-.02.105-.048.209-.081.31l-54.3 163.407a2.534 2.534 0 0 1-4.81-1.598l54.3-163.408-.082.31a2.534 2.534 0 0 1 4.973.979z" style="fill:#3194c2;fill-opacity:1;stroke-linejoin:miter"/><path d="M428 757.527c-.05.255-.14.501-.264.729L346.208 907.03a2.534 2.534 0 0 1-4.445-2.435l81.528-148.776-.264.728a2.534 2.534 0 1 1 4.973.98z" style="fill:#3194c2;fill-opacity:1;stroke-linejoin:miter"/><path d="M425.172 760.474c-.082.154-.18.298-.29.432L323.157 882.623a2.534 2.534 0 1 1-3.889-3.25l101.724-121.718-.29.432a2.534 2.534 0 1 1 4.47 2.387z" style="fill:#3194c2;fill-opacity:1;stroke-linejoin:miter"/><path d="M423.376 758.34c-.171.319-.408.598-.695.818L298.975 853.85a2.534 2.534 0 1 1-3.08-4.024L419.6 755.133l-.695.819a2.535 2.535 0 1 1 4.47 2.387zM432.847 574.532l-.03.063-125.209 251.328a2.534 2.534 0 0 1-4.537-2.26L428.28 572.334l-.03.063a2.534 2.534 0 0 1 4.597 2.135z" style="fill:#3194c2;fill-opacity:1;stroke-linejoin:miter"/><path d="m297.313 734.192-2.822-3.547 60.084-12.68a2.534 2.534 0 0 1 1.046 4.959l-60.083 12.68a2.534 2.534 0 0 1-2.822-3.547 2.535 2.535 0 0 1 4.597 2.135zM339.787 759.766a2.533 2.533 0 0 1-.923 1.06l-46.58 30.12a2.534 2.534 0 1 1-2.753-4.256l46.58-30.12-.922 1.061a2.535 2.535 0 0 1 4.598 2.135z" style="fill:#3194c2;fill-opacity:1;stroke-linejoin:miter"/><path d="M358.519 721.275a2.534 2.534 0 0 1-1.851.645l-64.821-4.004a2.534 2.534 0 0 1 .312-5.06l64.821 4.005-1.85.645a2.534 2.534 0 1 1 3.389 3.769z" style="fill:#3194c2;fill-opacity:1;stroke-linejoin:miter"/><path d="M356.286 719.407a2.534 2.534 0 0 1-2.203.599l-79.765-16.312a2.535 2.535 0 0 1 1.016-4.966l79.765 16.312-2.202.598a2.534 2.534 0 0 1 3.389 3.77zM398.291 641.532a2.537 2.537 0 0 1-1.03.063l-196.815-28.447a2.534 2.534 0 1 1 .725-5.016l196.815 28.446-1.03.064a2.535 2.535 0 0 1 1.335 4.89z" style="fill:#3194c2;fill-opacity:1;stroke-linejoin:miter"/><path d="m105.631 636.52 89.999-28.54 1.532 4.832-89.999 28.539-1.532-4.831m1.532 4.83a2.534 2.534 0 1 1-1.532-4.83l89.999-28.54a2.534 2.534 0 1 1 1.532 4.832l-89.999 28.539z" style="fill:#3194c2;fill-opacity:1;stroke-linejoin:miter"/><path d="M202.075 683.743a2.534 2.534 0 0 1-3.58-2.205l-2.851-70.53a2.534 2.534 0 1 1 5.064-.205l2.851 70.53-3.58-2.205h.001a2.534 2.534 0 1 1 2.095 4.615z" style="fill:#3194c2;fill-opacity:1;stroke-linejoin:miter"/><path d="M230.723 693.412a2.535 2.535 0 0 1-3.395-1.354l-30.932-76.144a2.535 2.535 0 0 1 4.696-1.908l30.931 76.144-3.395-1.354a2.534 2.534 0 0 1 2.095 4.616z" style="fill:#3194c2;fill-opacity:1;stroke-linejoin:miter"/><path d="M273.88 704.12a2.534 2.534 0 0 1-1.47-.88l-75.013-91.482a2.535 2.535 0 0 1 3.92-3.214l75.013 91.482-1.47-.88a2.534 2.534 0 0 1-.98 4.973z" style="fill:#3194c2;fill-opacity:1;stroke-linejoin:miter"/><path d="M202.214 608.11v.001l-.97-1.343 157.547 110.68a2.534 2.534 0 1 1-2.913 4.147L198.33 610.915a2.534 2.534 0 1 1 3.884-2.804zM396.519 637.732a2.535 2.535 0 0 1-1.318-.555L123.906 415.584a2.534 2.534 0 1 1 3.206-3.925l271.296 221.592-1.317-.555a2.534 2.534 0 0 1-.572 5.036z" style="fill:#3194c2;fill-opacity:1;stroke-linejoin:miter"/><path d="m46.27 396.142 1.403-4.62 352.686 243.55a2.534 2.534 0 1 1-2.88 4.171L44.793 395.693a2.535 2.535 0 0 1 1.403-4.62v.001a2.534 2.534 0 1 1 .074 5.068z" style="fill:#3194c2;fill-opacity:1;stroke-linejoin:miter"/><path d="m13.735 410.706 382.813 223.747a2.535 2.535 0 0 1-2.557 4.376L11.177 415.082a2.534 2.534 0 0 1 2.558-4.376z" style="fill:#3194c2;fill-opacity:1;stroke-linejoin:miter"/><path d="M393.738 637.581a2.227 2.227 0 0 1-.12-.027l-242.512-60.083a2.534 2.534 0 1 1 1.219-4.92l242.511 60.083-.12-.026a2.534 2.534 0 1 1-.978 4.973z" style="fill:#3194c2;fill-opacity:1;stroke-linejoin:miter"/><path d="M19.345 438.537a2.535 2.535 0 0 0-3.014 2.704l5.823 4.341 15.124 7.822v.001L373.715 627.4l12.73 6.584a2.532 2.532 0 0 0 3.684-1.98 2.535 2.535 0 0 0-1.353-2.522l-93.554-48.382 44.893 26.239-44.893-26.24L24.851 441.272v.001-.001l-4.83-2.498a2.527 2.527 0 0 0-.676-.236z" style="fill:#3194c2;fill-opacity:1;stroke-linejoin:miter"/><path d="m60.703 491.547 2.128 2.718c.07.088.144.171.224.25l6.2 6.062 12.58 5.214v.001-.001l285.548 118.336-53.393-27.614L72.1 496.27l6.407 6.265v.002l-6.407-6.267-11.396-4.722zM393.875 638.583a2.535 2.535 0 0 1-1.308-1.3l-29.61-67.05a2.534 2.534 0 0 1 4.637-2.048l29.61 67.05-1.308-1.3a2.534 2.534 0 1 1-2.02 4.648z" style="fill:#3194c2;fill-opacity:1;stroke-linejoin:miter"/></g></svg>